<?xml version="1.0" encoding="UTF-8"?>
<svg id="API" xmlns="http://www.w3.org/2000/svg" viewBox="0 0 100 100">
  <defs>
    <style>
      .cls-1 {
        fill: #fff;
      }
    </style>
  </defs>
  <path class="cls-1" d="M75.23,56.19c.45-2.02.78-4.06.78-6.17s-.36-4.21-.78-6.28c.29-.22.56-.42.81-.6.54-.4.87-1.05,1.52-1.34.16-.07.25-.31.32-.49.27-.67.72-1.34.25-2.09,0-.61-.52-.94-.72-1.43-.4-.99-1.08-1.82-1.55-2.78-.52-1.03-1.19-1.97-1.71-3-.38-.78-.9-1.41-1.77-1.73-.49-.18-.96-.23-1.43-.09-1.01.32-2,.67-2.98,1.01-3.1-2.92-6.66-5-10.72-6.16-.2-1.05-.34-2.06-.6-3.05-.14-.54-.43-1.12-.96-1.39-.58-.32-1.19-.61-1.91-.61-2.53.04-5.05.04-7.58,0-.42,0-.76.11-1.1.22-.96.32-1.62.96-1.82,2.04-.07.42-.04.88-.18,1.26-.2.51-.23,1.03-.4,1.52-4.08,1.21-7.64,3.29-10.76,6.19-.09-.09-.16-.22-.25-.23-.88-.16-1.7-.54-2.56-.79-.97-.29-2.17.13-2.76.97-.31.45-.49.96-.79,1.39-.58.85-1.03,1.75-1.55,2.62-.65,1.08-1.26,2.2-1.93,3.27-.22.36-.34.83-.4,1.26-.09.79.32,1.55,1.03,2.17.69.6,1.34,1.23,2.04,1.88-.4,2.02-.78,4.06-.78,6.17s.36,4.21.78,6.28c-.29.22-.56.42-.81.6-.54.4-.87,1.05-1.52,1.34-.16.07-.25.31-.32.49-.27.67-.72,1.34-.25,2.09,0,.61.52.94.72,1.43.4.99,1.08,1.82,1.55,2.78.52,1.03,1.19,1.97,1.71,3,.38.78.9,1.41,1.77,1.73.49.18.96.23,1.43.09,1.01-.32,2-.67,2.98-1.01,3.1,2.92,6.66,5.02,10.7,6.16.22,1.05.42,2.04.61,3.1.11.54.42,1.12.94,1.39.58.32,1.19.61,1.91.61,2.53-.04,5.05-.04,7.58,0,.4,0,.76-.11,1.1-.22.92-.29,1.57-.9,1.79-1.88.22-.99.4-2,.6-2.98,4.13-1.17,7.67-3.27,10.79-6.21.09.09.16.22.25.23.87.11,1.66.52,2.49.76.56.16,1.07.23,1.57-.04.47-.25,1.12-.31,1.28-.99.92-1.25,1.57-2.67,2.36-3.99.63-1.06,1.25-2.15,1.9-3.19.23-.36.34-.83.4-1.26.09-.79-.32-1.55-1.03-2.17-.69-.6-1.34-1.23-2.04-1.88ZM44.69,58.23c-.02.43-.43.56-.79.76-.31,0-.58,0-.76-.02-.76-.25-.97-.78-.92-1.44.04-.22-.05-.43-.14-.65-.2-.52-.27-1.08-.42-1.66h-5.31c-.47,1.1-.69,1.79-.63,2.82-.23.31-.49.61-.74.94h-1.08c-.18-.22-.4-.43-.69-.74,0,.02.04-.14-.04-.25-.25-.38-.18-.76-.05-1.16.51-1.61.85-3.25,1.53-4.78,0-.81.43-1.5.63-2.26.22-.76.38-1.52.65-2.26.52-1.44.79-2.96,1.43-4.37-.07-.56.34-1.01.36-1.59.2-.18.42-.38.67-.61.43,0,.94-.11,1.43.22,0,0,.02.04.05.09.43.58.49,1.3.72,1.95.43,1.17.72,2.4,1.12,3.59.49,1.44.85,2.94,1.43,4.37-.02.72.38,1.35.56,2.02.27,1.05.72,2.06.97,3.1.14.61.05,1.28.02,1.93ZM57.74,48.84c-.02.94-.34,1.73-1.01,2.38-.25.25-.51.52-.79.7-.61.38-1.25.61-2.02.58-1.28-.07-2.58-.02-3.9-.02v5.6c-.18.25-.31.43-.45.61-.4.4-.96.25-1.44.29-.22-.22-.43-.43-.67-.63v-16.77c.23-.22.43-.43.63-.65h6.07c.9,0,1.66.36,2.31.96.56.51.97,1.08,1.17,1.86.05.22.11.45.11.67v4.42ZM65.52,57.27v1.08c-.22.2-.43.42-.65.63h-3.75l-.65-.65v-1.08c.09-.42.52-.49.78-.74.07-.09.27-.05.45-.09v-12.85c-.31-.16-.65-.34-1.08-.56-.05-.42-.13-.9-.18-1.34.27-.25.49-.45.79-.72h3.68c.16.18.36.42.65.74-.04.34-.07.83-.13,1.3-.4.22-.74.4-1.14.6v12.82c.54.05.96.36,1.23.87Z"/>
  <path class="cls-1" d="M39.77,49.17c-.14-.74-.6-1.41-.61-2.18,0-.09-.16-.2-.27-.31-.36,1.01-.42,2.08-.96,2.98-.07,1.03-.7,1.93-.72,3.05.11-.09.16-.16.2-.16,1.12-.04,2.24-.05,3.3-.09.04-.65-.4-1.14-.47-1.79-.07-.51-.36-.99-.47-1.5Z"/>
  <path class="cls-1" d="M54.04,43.47c-1.34-.02-2.69,0-4.01,0v6.5c1.3,0,2.56-.02,3.83,0,.42.02.74-.14.99-.43.14-.18.25-.38.38-.58v-4.13c-.02-.69-.56-1.34-1.19-1.35Z"/>
</svg>