<?xml version="1.0" encoding="UTF-8"?>
<svg xmlns="http://www.w3.org/2000/svg" version="1.1" viewBox="0 0 100 100">
  <defs>
    <style>
      .cls-1 {
        fill: #fff;
      }
    </style>
  </defs>
  <!-- Generator: Adobe Illustrator 28.6.0, SVG Export Plug-In . SVG Version: 1.2.0 Build 709)  -->
  <g>
    <g id="PANO2VR">
      <g>
        <polygon class="cls-1" points="51.2 52.7 51.2 52.7 51.2 52.7 51.2 52.7"/>
        <path class="cls-1" d="M63.5,48.2c-1.3-1.1-3.1-1.8-5-1.8s-3.7.7-5,1.8c-1.3,1.1-2.2,2.7-2.3,4.5-.1,1.9.6,3.6,2,4.9,1.3,1.3,3.3,2.1,5.4,2.1s4-.8,5.4-2.1c1.3-1.3,2.1-3,2-4.9-.1-1.8-1-3.4-2.3-4.5Z"/>
        <path class="cls-1" d="M77.1,52.6c-.3-2.3-1.1-4.4-2.3-6.3-1.1-1.8-2.5-3.3-4.2-4.6h0s-17-13.1-17-13.1c0,0,0,0,0,0-1.1-.9-3-.9-4.2,0-1.2.9-1.4,2.3-.3,3.2h0s7.1,5.8,7.1,5.8h-21.6s0,0,0,0c-1.8,0-3.5,1.2-3.8,2.7-.3,1.5.9,2.8,2.7,2.8h0s11,0,11,0l-19.5,15s0,0,0,0c-1.8,1.4-2.4,3.8-1.3,5.2,1.2,1.5,3.7,1.5,5.5,0l10.7-8.7s-.2,1.2-.1,1.9h0c0,.7.2,2.1.6,3.2.7,2.3,1.9,4.4,3.6,6.3,1.7,1.9,3.9,3.4,6.3,4.5,2.6,1.1,5.4,1.7,8.3,1.7,2.9,0,5.7-.6,8.3-1.8,2.5-1.1,4.6-2.6,6.3-4.6,1.7-1.9,2.9-4,3.6-6.3.4-1.2.6-2.3.7-3.5,0-1.2,0-2.3-.1-3.5ZM69.2,56.7c-.5,1.3-1.3,2.6-2.3,3.7-2.2,2.2-5.3,3.5-8.6,3.5-3.3,0-6.4-1.3-8.6-3.5-1.1-1.1-1.9-2.3-2.3-3.7-.5-1.3-.7-2.7-.5-4.1.1-1.4.5-2.7,1.2-3.9.6-1.2,1.5-2.2,2.6-3.1,2.1-1.7,4.9-2.7,7.7-2.7,2.8,0,5.6.9,7.7,2.7,1.1.9,2,1.9,2.6,3.1.7,1.2,1.1,2.5,1.2,3.9.1,1.4,0,2.8-.5,4.1Z"/>
      </g>
    </g>
  </g>
</svg>