<?xml version="1.0" encoding="UTF-8"?>
<svg xmlns="http://www.w3.org/2000/svg" version="1.1" viewBox="0 0 100 100">
  <defs>
    <style>
      .cls-1 {
        fill: #fff;
      }

      .cls-2 {
        fill: #d2300b;
      }

      .cls-3 {
        fill: #1f2b3f;
      }

      .cls-4 {
        display: none;
      }
    </style>
  </defs>
  <!-- Generator: Adobe Illustrator 28.6.0, SVG Export Plug-In . SVG Version: 1.2.0 Build 709)  -->
  <g>
    <g id="BG" class="cls-4">
      <rect class="cls-3" x="0" y=".1" width="99.9" height="99.8"/>
    </g>
    <g id="UNCHECKED_x5F_WHT" class="cls-4">
      <path class="cls-1" d="M79.2,79.8H20.8c-.3,0-.6-.3-.6-.6V20.8c0-.3.3-.6.6-.6h58.3c.3,0,.6.3.6.6v58.3c0,.3-.3.6-.6.6ZM27.8,72.8h44.3c.3,0,.6-.3.6-.6V27.8c0-.3-.3-.6-.6-.6H27.8c-.3,0-.6.3-.6.6v44.3c0,.3.3.6.6.6Z"/>
    </g>
    <g id="CHECKED_x5F_WHT">
      <g>
        <path class="cls-1" d="M20.9,79.8h58.3c.4,0,.6-.3.6-.6v-37.7c0-.6-.7-.9-1.1-.5l-5.7,5.6c-.1.1-.2.3-.2.4,0,2.5,0,21.4,0,25.1s-.3.6-.6.6H27.9c-.4,0-.6-.3-.6-.6V27.8c0-.4.3-.6.6-.6h41.9c.2,0,.3,0,.5-.2l5.5-5.7c.4-.4.1-1.1-.5-1.1H20.9c-.4,0-.6.3-.6.6v58.3c0,.4.3.6.6.6Z"/>
        <path class="cls-2" d="M89.1,26.8c-4.6,4.6-22.7,22.7-32.8,32.8-.3.4-.9.3-1.3,0l-17.4-17.4c-.4-.4-.4-.9,0-1.3l6-6c.4-.4.9-.4,1.3,0l10,10c.4.4.9.4,1.3,0l26.2-26.2c.4-.4.9-.4,1.3,0l5.5,5.8c.6.6.6,1.6,0,2.3Z"/>
      </g>
    </g>
  </g>
</svg>