<?xml version="1.0" encoding="UTF-8"?>
<svg xmlns="http://www.w3.org/2000/svg" version="1.1" viewBox="0 0 100 100">
  <defs>
    <style>
      .cls-1 {
        fill: #fff;
      }

      .cls-2 {
        fill: #141d2f;
      }

      .cls-3 {
        mix-blend-mode: multiply;
        opacity: .8;
      }

      .cls-4 {
        fill: #b2b2b2;
      }

      .cls-5 {
        isolation: isolate;
      }

      .cls-6 {
        fill: #06171e;
      }
    </style>
  </defs>
  <!-- Generator: Adobe Illustrator 28.6.0, SVG Export Plug-In . SVG Version: 1.2.0 Build 709)  -->
  <g class="cls-5">
    <g id="Ebene_1">
      <g>
        <g>
          <path class="cls-4" d="M36,34.1c-5.5,2-22.8,14.1-7.1,35.7,15.9,15.8,34,6.1,37.7-6.6,0,0-14.4,7.8-26.2-3s-4.3-26.1-4.3-26.1Z"/>
          <g class="cls-3">
            <path class="cls-2" d="M36,34.1c-5.5,2-22.8,14.1-7.1,35.7,15.9,15.8,34,6.1,37.7-6.6,0,0-14.4,7.8-26.2-3s-4.3-26.1-4.3-26.1Z"/>
          </g>
        </g>
        <circle class="cls-6" cx="55.1" cy="44.7" r="22.6"/>
        <path class="cls-1" d="M50,20.1c-16.4,0-29.9,13.3-29.9,29.9s13.3,29.9,29.9,29.9,29.9-13.3,29.9-29.9c0-2.8-.3-4.7-.7-6.1s-1.5-4.8-1.5-4.8c-2.7-5.8-7,1.2-7.5,7.5-.5,6.3-2.2,15.8-9.6,23.6-7.5,7.8-18.6,9-28.6,1.2s-11.6-25.6,1-33.9,21.9-6.6,26.7-9.6,1.5-5.3-.8-6-6.6-1.5-9.1-1.5l.2-.2Z"/>
      </g>
    </g>
  </g>
</svg>