<?xml version="1.0" encoding="UTF-8"?>
<svg xmlns="http://www.w3.org/2000/svg" version="1.1" xmlns:xlink="http://www.w3.org/1999/xlink" viewBox="0 0 100 100">
  <defs>
    <style>
      .cls-1 {
        fill: #fff;
      }

      .cls-2 {
        fill: #9206bc;
      }

      .cls-3 {
        fill: none;
      }

      .cls-4 {
        fill: #70e61c;
      }

      .cls-5 {
        clip-path: url(#clippath);
      }
    </style>
    <clipPath id="clippath">
      <rect class="cls-3" x="21" y="20.4" width="60" height="59.9"/>
    </clipPath>
  </defs>
  <!-- Generator: Adobe Illustrator 28.6.0, SVG Export Plug-In . SVG Version: 1.2.0 Build 709)  -->
  <g>
    <g id="API">
      <g class="cls-5">
        <g>
          <path class="cls-1" d="M70.8,45.7l-19.2,10.9c-.3.2-.8.2-1.1,0l-19.2-10.9c-.8-.4-.8-1.5,0-2l19.2-10.9c.3-.2.8-.2,1.1,0l19.2,10.9c.8.4.8,1.5,0,2Z"/>
          <path class="cls-1" d="M67.5,49.3v9c0,.4-.2.8-.6,1l-15.3,8.7c-.3.2-.8.2-1.1,0l-15.3-8.7c-.4-.2-.6-.6-.6-1v-9l8.5,4.8,7.4,4.2c.3.2.8.2,1.1,0l7.4-4.2,8.5-4.8Z"/>
          <path class="cls-4" d="M76.4,34.4l.5-.4c.6-.4.6-1.4-.1-1.7l-4.2-2c-.7-.3-1.5.2-1.5,1l.4,4.6c0,.8,1,1.2,1.6.7l.8-.5c6.7,10.8,4.9,25.1-4.5,33.9-9.2,8.6-23.4,9.7-33.7,2.5-.7-.5-1.6-.3-2.1.4-.5.7-.3,1.6.4,2.1,5.1,3.5,11.1,5.3,17,5.3s14.8-2.7,20.6-8.1c10.4-9.8,12.5-25.9,4.9-37.9Z"/>
          <path class="cls-2" d="M68.1,25.7c-11.5-8-27.3-6.8-37.6,2.8-10.7,10-12.6,26-4.6,38.3l-.7.5c-.6.4-.6,1.4.1,1.7l4.2,2c.7.3,1.5-.2,1.5-1l-.4-4.6c0-.8-1-1.2-1.6-.7l-.5.4c-7.1-11-5.4-25.3,4.2-34.3,9.2-8.6,23.4-9.7,33.7-2.5.7.5,1.6.3,2.1-.4.5-.7.3-1.6-.4-2.1Z"/>
        </g>
      </g>
    </g>
  </g>
</svg>