<?xml version="1.0" encoding="UTF-8"?>
<svg id="CONTINUALLY-LEARNING" xmlns="http://www.w3.org/2000/svg" xmlns:xlink="http://www.w3.org/1999/xlink" viewBox="0 0 100 100">
  <defs>
    <style>
      .cls-1 {
        fill: #fff;
      }

      .cls-2 {
        fill: none;
      }

      .cls-3 {
        clip-path: url(#clippath);
      }
    </style>
    <clipPath id="clippath">
      <rect class="cls-2" x="20" y="20.03" width="60" height="59.94"/>
    </clipPath>
  </defs>
  <g class="cls-3">
    <g>
      <path class="cls-1" d="M69.83,45.24l-19.21,10.94c-.34.2-.77.2-1.13,0l-19.21-10.94c-.75-.43-.75-1.52,0-1.95l19.21-10.94c.35-.2.77-.2,1.13,0l19.21,10.94c.75.43.75,1.52,0,1.95Z"/>
      <path class="cls-1" d="M66.5,48.93v9.02c0,.41-.21.77-.57.98l-15.32,8.73c-.34.2-.77.2-1.13,0l-15.32-8.73c-.36-.2-.57-.57-.57-.98v-9.02l8.49,4.83,7.39,4.22c.35.2.77.2,1.13,0l7.4-4.22,8.49-4.83Z"/>
      <path class="cls-1" d="M75.45,34.04l.53-.37c.64-.45.56-1.41-.14-1.75l-4.21-2c-.71-.34-1.52.22-1.45,1.01l.41,4.65c.07.77.96,1.19,1.6.74l.75-.52c6.69,10.78,4.89,25.14-4.47,33.89-9.21,8.6-23.39,9.65-33.74,2.49-.69-.48-1.65-.31-2.13.39-.48.69-.3,1.65.39,2.13,5.12,3.54,11.07,5.28,17.01,5.28,7.43,0,14.85-2.73,20.56-8.06,10.45-9.77,12.46-25.86,4.9-37.88Z"/>
      <path class="cls-1" d="M67.11,25.31c-11.51-7.97-27.31-6.8-37.56,2.78-10.71,10.02-12.63,26.03-4.65,38.25l-.74.51c-.64.45-.56,1.41.14,1.75l4.21,2c.71.34,1.52-.22,1.46-1.01l-.41-4.65c-.07-.77-.96-1.19-1.6-.74l-.55.39c-7.1-10.97-5.38-25.31,4.22-34.28,9.21-8.6,23.39-9.66,33.74-2.49.69.48,1.65.31,2.13-.39.48-.69.3-1.65-.39-2.13Z"/>
    </g>
  </g>
</svg>