<?xml version="1.0" encoding="UTF-8"?>
<svg xmlns="http://www.w3.org/2000/svg" version="1.1" viewBox="0 0 100 100">
  <defs>
    <style>
      .cls-1 {
        fill: #fff;
      }
    </style>
  </defs>
  <!-- Generator: Adobe Illustrator 28.6.0, SVG Export Plug-In . SVG Version: 1.2.0 Build 709)  -->
  <g>
    <g id="Ebene_1">
      <g id="PANO2VR">
        <path class="cls-1" d="M23.6,34.4c6-6.8,13-8.5,21.3-6.4-1.3-2.1-3.3-3.3-5.4-4.3,6.8-2.7,15.6-2.3,22.2,5.2.4-.3.1-.9.1-1.1,0-.6-.7-1.3-.1-1.6.6-.6,1.3.1,2,.4,10.9,4.5,17.4,15.9,16.2,27.5-1.3,11.6-10.1,20.8-21.5,23-6.8,1.3-13.2,0-19.3-3.8,1.3-.9,2.8-1,4.1-2.3-7.4-.3-12.9-3.4-16.9-9.6,2-.6,3.4-1.4,4-3.3.6-2-.4-4.1-2.3-5.1-1.8-1-4-.4-5.4,1.1-.4.4-.4,1.4-1.4,1.1-.7-.3-.7-1-.9-1.7-.9-3.8,1.1-8.4,4.7-10.8.4-.3,1-.6,1.6-1-.3-.3-.4-.7-.7-1-.7-.9-.3-1.3.6-1.1,2.3.1,4-1.1,5.7-2.1,1-.6.7-1.1,0-1.7-2.4-1.6-5-2.1-8.4-1.7h-.1ZM72.8,52.3c0-9.2-7.2-16.4-16.4-16.3-8.9,0-16.3,7.4-16.3,16.3s7.4,17,17.4,16.4c8.9-.4,15.2-7.5,15.2-16.4h.1Z"/>
      </g>
    </g>
  </g>
</svg>