<?xml version="1.0" encoding="UTF-8"?>
<svg xmlns="http://www.w3.org/2000/svg" version="1.1" viewBox="0 0 100 100">
  <defs>
    <style>
      .cls-1 {
        fill: #fff;
      }
    </style>
  </defs>
  <!-- Generator: Adobe Illustrator 28.6.0, SVG Export Plug-In . SVG Version: 1.2.0 Build 709)  -->
  <g>
    <g id="Ebene_1">
      <g>
        <path class="cls-1" d="M59.8,34.9c-6.2-1.1-11.3.8-15.2,6-.4.7-1.1,1.3-2.4,1-3.9-1-7.7,0-10.6,2.5-2.9,2.5-4.3,6.2-3.9,10.1.4,4.5,2.8,7.7,7,9.5s8.1,1.4,11.7-1.3c.4-.3,1-.4,1.3-.4s.7.1,1.1.4c2.5,1.5,5.2,2.4,8.1,2.4h.8c.6,0,1.3-.1,1.8-.1,4.2-.7,8-3.1,10.4-6.7h-.1c2.2-3.6,2.9-8,2-12-1.7-6.3-5.7-10.1-11.9-11.3ZM39.7,63.4c-5.7,0-10.4-4.8-10.1-10.4.1-4.1,2.2-7.1,6-8.8,3.8-1.7,7.4-1.1,10.5,1.7,2,1.7,3.6,3.6,5.5,5.6-.6.6-1.1,1-1.8,1.7-.1-.3-.3-.6-.4-.7-1.5-1.5-2.8-3.2-4.3-4.6-2.4-2.4-5.7-2.9-8.7-1.7s-4.6,4.1-4.6,7.4c.1,5.6,6.3,9.2,11.3,6.6h.1c.3,0,.6-.3,1-.4.4.6.8,1.1,1.4,1.7-1.8,1.4-3.8,2-5.9,2ZM69.9,53.5c-1.4,5.2-5,8.4-10.4,9.4-4.2.7-8.1-.3-11.2-3.4-2.5-2.4-4.8-5.2-7.1-7.8.6-.6,1.1-1,1.7-1.5.4.3.7.7,1,1,1.5,2,3.2,3.9,4.9,5.7,2.9,3.4,6.7,4.8,11.2,3.6,4.3-1.1,7-4.1,8-8.4,1.1-4.9-1.5-9.9-6-12-4.5-2.2-9.9-1.1-13.1,2.8-.3.1-.4.4-.7.7-.6-.4-1.1-.8-1.8-1.3,1.4-2.1,3.4-3.8,5.7-4.6h.3c5-2,9.7-1.3,13.7,2.4,4.1,3.5,5.5,8.3,3.9,13.4Z"/>
        <path class="cls-1" d="M74.5,20H25.5c-3.1,0-5.6,2.5-5.6,5.6v48.7c0,3.1,2.5,5.6,5.6,5.6h48.9c3.1,0,5.6-2.5,5.6-5.6V25.7c0-3.1-2.5-5.6-5.6-5.6ZM71.8,59.4c-2.7,4.2-7,7-11.7,7.7-.7.3-1.3.3-2,.3h-1c-3.4-.1-6.4-1-9.2-2.8-4.1,2.9-9,3.5-13.7,1.4-4.9-2.2-7.7-6-8.3-11.3-.4-4.6,1.3-9,4.6-11.9,3.4-2.9,8-4.1,12.4-2.9h.1c4.5-5.9,10.5-8.3,17.3-6.9,7,1.4,11.6,5.9,13.4,12.9h.1c1.3,4.6.4,9.5-2.2,13.6Z"/>
      </g>
    </g>
  </g>
</svg>