<?xml version="1.0" encoding="UTF-8"?>
<svg id="CSS" xmlns="http://www.w3.org/2000/svg" viewBox="0 0 100 100">
  <defs>
    <style>
      .cls-1 {
        fill: #fff;
      }
    </style>
  </defs>
  <path class="cls-1" d="M23.51,20h0c0,.24-.01.4,0,.56.4,4.4.8,8.8,1.2,13.21.55,6.24,1.09,12.48,1.64,18.7.62,7,1.26,13.99,1.86,20.99.04.51.22.73.7.86,6.77,1.86,13.52,3.73,20.29,5.58.46.13,1.01.15,1.46.02,6.79-1.86,13.58-3.75,20.37-5.62.52-.15.7-.38.74-.91.21-2.64.47-5.3.7-7.94.39-4.38.77-8.75,1.16-13.13.46-5.14.92-10.27,1.38-15.4.34-3.83.7-7.64,1.04-11.47.16-1.8.3-3.59.44-5.43H23.51ZM66.27,35.28c-.35,3.87-.7,7.75-1.05,11.62-.4,4.45-.8,8.9-1.21,13.34-.12,1.28-.29,2.56-.32,3.85-.02.69-.32.87-.89,1.03-4.08,1.1-8.16,2.23-12.23,3.35-.18.05-.35.12-.53.17-.06-.03-.13-.05-.2-.08-4.36-1.18-8.72-2.38-13.08-3.58-.18-.05-.41-.34-.43-.54-.31-3.3-.58-6.6-.88-9.96h6.66c.12,1.32.24,2.66.35,4.02.09,1.25.09,1.25,1.26,1.56,2.11.56,4.22,1.11,6.33,1.66l-.02-.05c2.31-.61,4.61-1.22,6.92-1.87.21-.06.45-.4.49-.63.14-1.01.21-2.04.3-3.06.14-1.64.28-3.28.42-4.99h-8.13l.02-.04h-14.9c-.2-2.19-.39-4.36-.59-6.59h15.5l-.02-.04h8.71c.2-2.27.4-4.49.6-6.76h-9.32l.02-.04h-.17c-5.22.01-10.43.01-15.65.02-.07,0-.15-.03-.29-.07-.19-2.16-.39-4.31-.58-6.53h16.69l-.02-.04h16.59c-.12,1.48-.23,2.88-.35,4.27Z"/>
</svg>