<?xml version="1.0" encoding="UTF-8"?>
<svg id="GIT" xmlns="http://www.w3.org/2000/svg" viewBox="0 0 100 100">
  <defs>
    <style>
      .cls-1 {
        fill: #fff;
      }
    </style>
  </defs>
  <path class="cls-1" d="M78.88,47.36l-26.23-26.23c-1.5-1.5-3.98-1.5-5.48,0l-5.42,5.42,6.92,6.92c1.63-.52,3.46-.2,4.7,1.11,1.3,1.31,1.63,3.13,1.11,4.76l6.66,6.66c1.63-.52,3.46-.2,4.76,1.11,1.83,1.76,1.83,4.7,0,6.53-1.83,1.83-4.7,1.83-6.53,0-1.37-1.37-1.7-3.33-.98-5.02l-6.2-6.2v16.31c.46.2.85.52,1.24.85,1.83,1.76,1.83,4.7,0,6.53-1.83,1.76-4.7,1.76-6.53,0-1.83-1.83-1.83-4.7,0-6.53.46-.46.98-.78,1.5-.98v-16.51c-.52-.2-1.04-.59-1.5-.98-1.37-1.37-1.7-3.33-.98-5.02l-6.85-6.79-17.95,17.94c-1.5,1.5-1.5,3.98,0,5.48l26.17,26.17c1.5,1.5,3.98,1.5,5.48,0l26.04-26.04c1.57-1.57,1.57-3.98.07-5.48Z"/>
</svg>