<?xml version="1.0" encoding="UTF-8"?>
<svg id="JAVASCRIPT" xmlns="http://www.w3.org/2000/svg" viewBox="0 0 100 100">
  <defs>
    <style>
      .cls-1 {
        fill: #fff;
      }
    </style>
  </defs>
  <path class="cls-1" d="M20,20h60v60H20V20ZM73.68,51.76c-1.21-2.19-2.88-3.69-5.27-4.21-1.7-.41-3.4-.41-5.1-.04-5.51,1.13-7.86,7.78-4.3,12.19,1.26,1.54,2.92,2.47,4.66,3.28,1.54.73,3.12,1.42,4.66,2.19,1.05.53,1.5,1.5,1.38,2.67-.12,1.17-.93,1.82-1.95,2.19-2.27.81-4.9.08-6.44-1.82-.32-.41-.65-.85-.97-1.3-1.54.89-3.04,1.74-4.54,2.63.93,1.82,2.23,3.28,4.01,4.25,3.04,1.66,6.24,1.9,9.52,1.09,2.15-.53,3.97-1.62,5.11-3.61,2.11-3.77.89-8.47-2.84-10.78-1.66-1.01-3.53-1.7-5.27-2.59-.85-.45-1.74-.85-2.47-1.42-1.3-1.05-1.05-3.16.41-3.97,1.42-.81,3.4-.32,4.5,1.09.24.28.4.61.65.93,1.38-.93,2.79-1.86,4.25-2.8ZM35.8,70.16c.81,1.74,1.98,3.12,3.65,4.01,2.15,1.17,4.5,1.38,6.89,1.01,2.15-.32,3.93-1.3,5.1-3.24.97-1.62,1.26-3.4,1.26-5.31v-19.04h-5.63v18.88c0,.57-.04,1.17-.12,1.74-.16.93-.65,1.62-1.58,1.9-1.74.53-3.16,0-4.17-1.5-.24-.41-.49-.81-.77-1.22-1.58.93-3.08,1.82-4.62,2.75Z"/>
</svg>