<?xml version="1.0" encoding="UTF-8"?>
<svg xmlns="http://www.w3.org/2000/svg" version="1.1" viewBox="0 0 36 50">
  <defs>
    <style>
      .cls-1 {
        fill: none;
        stroke: #70e61c;
        stroke-width: 2px;
      }

      .cls-2 {
        fill: #70e61c;
      }
    </style>
  </defs>
  <!-- Generator: Adobe Illustrator 28.6.0, SVG Export Plug-In . SVG Version: 1.2.0 Build 709)  -->
  <g>
    <g id="Ebene_1">
      <path class="cls-1" d="M29.8,28.6c-1.7,2.4-3.6,4.9-4.6,7.9h-14.2c-1.1-3-2.9-5.5-4.7-8h0c-.5-.7-1-1.4-1.5-2.1h0c-1.8-2.6-2.9-5.8-2.9-9.2C1.8,8.2,9,1,18,1s16.2,7.2,16.2,16.2-1.1,6.6-2.9,9.2h0c-.5.7-1,1.4-1.5,2.1h0s0,0,0,.1ZM24.8,42.2c0,3.8-3.1,6.8-6.8,6.8s-6.8-3-6.8-6.8v-.6h13.7v.6h0Z"/>
      <path class="cls-2" d="M8.6,19.8c1.4,0,2.6-1.1,2.6-2.6,0-3.8,3.1-6.8,6.8-6.8s2.6-1.1,2.6-2.6-1.2-2.6-2.6-2.6c-6.6,0-12,5.3-12,11.9s1.2,2.6,2.6,2.6h0Z"/>
    </g>
  </g>
</svg>