<?xml version="1.0" encoding="UTF-8"?>
<svg id="Ebene_1" xmlns="http://www.w3.org/2000/svg" viewBox="0 0 350 350">
  <defs>
    <style>
      .cls-1 {
        fill: #d2300b;
      }

      .cls-2 {
        fill: #056991;
      }
    </style>
  </defs>
  <g>
    <path class="cls-2" d="M258.19,264.18c-.42-.04-.8-.24-1.05-.57l-49.35-63.38c-.42-.54-.42-1.3,0-1.84l66.7-85.43c.28-.37.72-.58,1.18-.58.01,0,.03,0,.04,0,.48.01.92.25,1.19.65,13.32,19.27,20.35,41.87,20.35,65.36,0,32.48-13.83,63.61-37.94,85.41-.28.25-.64.39-1.01.39-.04,0-.09,0-.13,0Z"/>
    <path class="cls-1" d="M275.68,113.87c12.66,18.33,20.09,40.55,20.09,64.51,0,33.44-14.45,63.51-37.45,84.3l-49.35-63.38,66.7-85.43M275.68,110.87c-.92,0-1.79.42-2.36,1.15l-66.7,85.43c-.85,1.08-.85,2.6,0,3.69l49.35,63.38c.51.66,1.28,1.07,2.11,1.15.09,0,.17.01.26.01.74,0,1.46-.27,2.01-.77,11.98-10.83,21.42-23.75,28.07-38.39,6.88-15.16,10.37-31.35,10.37-48.13,0-23.8-7.13-46.7-20.62-66.22-.54-.79-1.43-1.27-2.38-1.29-.03,0-.06,0-.09,0h0Z"/>
  </g>
  <g>
    <path class="cls-2" d="M193.01,292.98c-.37,0-.73-.14-1.01-.39-.31-.28-.49-.69-.49-1.11v-75.05c0-.64.41-1.21,1.01-1.42.16-.06.32-.08.49-.08.45,0,.89.21,1.18.58l46.79,59.87c.27.34.37.78.29,1.2-.08.42-.34.79-.71,1.01-14.59,8.61-30.54,13.78-47.41,15.38-.05,0-.09,0-.14,0Z"/>
    <path class="cls-1" d="M193.01,216.43l46.79,59.87c-13.96,8.23-29.83,13.57-46.79,15.18v-75.05M193.01,213.43c-.33,0-.66.05-.98.16-1.21.42-2.02,1.56-2.02,2.84v75.05c0,.84.36,1.65.98,2.22.55.5,1.28.78,2.02.78.09,0,.19,0,.28-.01,17.09-1.62,33.25-6.86,48.03-15.58.74-.44,1.26-1.18,1.42-2.03.16-.85-.05-1.73-.58-2.41l-46.79-59.87c-.58-.74-1.46-1.15-2.36-1.15h0Z"/>
  </g>
  <g>
    <path class="cls-2" d="M170.14,292.88c-28.15-2.92-54.17-16.12-73.27-37.18-19.23-21.2-29.83-48.66-29.83-77.31,0-24.74,7.74-48.32,22.37-68.19.28-.38.73-.61,1.21-.61h79.68c.83,0,1.5.67,1.5,1.5v76.79c0,.83-.67,1.5-1.5,1.5h-57.58c-.55,0-1,.45-1,1v18.72c0,.55.45,1,1,1h57.58c.83,0,1.5.67,1.5,1.5v79.79c0,.42-.18.83-.5,1.11-.28.25-.64.39-1,.39-.05,0-.1,0-.15,0Z"/>
    <path class="cls-1" d="M170.29,111.08v76.79h-57.58c-1.38,0-2.5,1.12-2.5,2.5v18.72c0,1.38,1.12,2.5,2.5,2.5h57.58v79.8c-57.17-5.93-101.75-54.26-101.75-113,0-25.19,8.2-48.46,22.08-67.3h79.68M170.29,108.08h-79.68c-.95,0-1.85.45-2.42,1.22-14.83,20.13-22.66,44.02-22.66,69.08,0,29.02,10.73,56.84,30.21,78.32,19.35,21.33,45.71,34.71,74.23,37.67.1.01.21.02.31.02.74,0,1.46-.27,2.01-.77.63-.57.99-1.38.99-2.23v-79.8c0-1.66-1.34-3-3-3h-57.08v-17.72h57.08c1.66,0,3-1.34,3-3v-76.79c0-1.66-1.34-3-3-3h0Z"/>
  </g>
  <g>
    <path class="cls-2" d="M193.01,184.51c-.16,0-.33-.03-.49-.08-.61-.21-1.01-.78-1.01-1.42v-92.6c0-.55-.45-1-1-1h-77.07c-.64,0-1.22-.41-1.42-1.02-.21-.61,0-1.28.51-1.67,20.16-15.34,44.24-23.45,69.63-23.45,29.71,0,57.91,11.28,79.41,31.77.56.53.62,1.4.15,2.01l-67.52,86.89c-.29.37-.73.58-1.19.58Z"/>
    <path class="cls-1" d="M182.15,64.77c30.39,0,57.98,11.93,78.37,31.36l-67.52,86.89v-92.6c0-1.38-1.12-2.5-2.5-2.5h-77.07c19.08-14.52,42.89-23.14,68.72-23.14M182.15,61.77c-25.72,0-50.11,8.21-70.54,23.75-1.02.78-1.44,2.13-1.03,3.35.41,1.22,1.56,2.04,2.84,2.04h76.57v92.1c0,1.28.81,2.42,2.03,2.84.32.11.65.16.97.16.91,0,1.79-.41,2.37-1.16l67.52-86.89c.94-1.22.82-2.95-.3-4.01-21.78-20.75-50.35-32.18-80.44-32.18h0Z"/>
  </g>
</svg>