<?xml version="1.0" encoding="UTF-8"?>
<svg xmlns="http://www.w3.org/2000/svg" version="1.1" viewBox="0 0 100 100">
  <defs>
    <style>
      .cls-1 {
        fill: #fff;
      }
    </style>
  </defs>
  <!-- Generator: Adobe Illustrator 28.6.0, SVG Export Plug-In . SVG Version: 1.2.0 Build 709)  -->
  <g>
    <g id="MATERIAL-DESIGN">
      <g>
        <path class="cls-1" d="M27.9,29.8v40.5c-4.9-5.4-7.9-12.5-7.9-20.3s3-14.9,7.9-20.2Z"/>
        <path class="cls-1" d="M31.1,34.2l17.3,34.7h-17.3s0-34.7,0-34.7Z"/>
        <path class="cls-1" d="M50,65l-17-33.9h34l-17,33.9Z"/>
        <path class="cls-1" d="M50,20c7.8,0,14.9,3,20.2,7.9H29.8c5.3-4.9,12.4-7.9,20.2-7.9Z"/>
        <path class="cls-1" d="M68.9,68.9h-17.3l17.3-34.7v34.7Z"/>
        <path class="cls-1" d="M70.2,72.1c-5.3,4.9-12.4,7.9-20.2,7.9s-14.9-3-20.2-7.9h40.4Z"/>
        <path class="cls-1" d="M72.1,70.2V29.8c4.9,5.3,7.9,12.4,7.9,20.2s-3,14.9-7.9,20.2Z"/>
        <path class="cls-1" d="M31.1,34.2l17.3,34.7h-17.3s0-34.7,0-34.7Z"/>
        <path class="cls-1" d="M50,65l-17-33.9h34l-17,33.9Z"/>
        <path class="cls-1" d="M51.6,68.9l17.3-34.7v34.7s-17.3,0-17.3,0Z"/>
        <path class="cls-1" d="M33,31.1h34l-17,33.9s-17-33.9-17-33.9Z"/>
      </g>
    </g>
  </g>
</svg>