<?xml version="1.0" encoding="UTF-8"?>
<svg xmlns="http://www.w3.org/2000/svg" version="1.1" viewBox="0 0 100 100">
  <defs>
    <style>
      .cls-1 {
        fill: #fff;
      }
    </style>
  </defs>
  <!-- Generator: Adobe Illustrator 28.6.0, SVG Export Plug-In . SVG Version: 1.2.0 Build 709)  -->
  <g>
    <g id="OCTANE-RENDERER">
      <path class="cls-1" d="M71.8,52.9c-2-4.2-4.8-8-8.7-10.7,0,0-.1,0-.4-.1,3.8-2.1,7.9-2.2,11.9-1.7.3-2,.6-3.9.8-5.9-.3,0-.4,0-.7-.1-3.6-.6-7.2-1.3-10.8-1.7-3.8-.4-7.6-.1-11.2,1-1.1.4-2.1.8-3.2,1.3,0-4.2,2-7.7,4.5-10.9-1.5-1.3-3.1-2.5-4.6-3.6-2.8,3.1-5.3,6.2-7.7,9.5-2.1,2.9-3.6,6.2-4.3,9.7-.3,1.1-.4,2.2-.6,3.5-3.6-2.2-5.6-5.6-7.3-9.3-1.8.7-3.6,1.4-5.5,2.1v.3c1.4,3.6,2.7,7.3,4.2,10.8,1.8,4.3,4.6,8,8.6,10.7.1,0,.4.3.6.4-3.8,2.1-7.7,2.2-11.8,1.7-.3,2-.6,3.9-.8,5.9h.4c4.2.8,8.4,1.5,12.6,1.8,3.8.3,7.6-.3,11.1-1.7.6-.3,1.1-.4,1.8-.7,0,2.1-.4,4.1-1.4,5.9-.8,1.8-2,3.5-2.9,5.2,1.4,1.1,2.9,2.4,4.5,3.6,0,0,.1,0,.1-.1,2.5-3.1,5-6,7.3-9.1,2.5-3.4,4.2-7.3,4.9-11.5,0-.6.1-1.3.3-2,3.6,2.2,5.8,5.6,7.3,9.4,1.8-.7,3.6-1.4,5.5-2.1-1.3-3.9-2.7-7.7-4.3-11.4h0ZM50,57.8c-4.3,0-8-3.5-8-8s3.6-8,7.9-7.9c4.3,0,7.9,3.5,7.9,7.9s-3.5,8-7.9,8h.1Z"/>
    </g>
  </g>
</svg>