<?xml version="1.0" encoding="UTF-8"?>
<svg xmlns="http://www.w3.org/2000/svg" version="1.1" viewBox="0 0 100 100">
  <defs>
    <style>
      .cls-1 {
        fill: #fff;
      }

      .cls-2 {
        fill: #e5e5e5;
      }

      .cls-3 {
        fill: #f2f2f2;
      }

      .cls-4 {
        fill: #d8d8d8;
      }

      .cls-5 {
        fill: #ccc;
      }
    </style>
  </defs>
  <!-- Generator: Adobe Illustrator 28.6.0, SVG Export Plug-In . SVG Version: 1.2.0 Build 709)  -->
  <g>
    <g id="PANO2VR">
      <path class="cls-1" d="M50,20c-16.6,0-30,13.4-30,30s13.4,30,30,30,30-13.4,30-30-13.4-30-30-30ZM73.4,65.8c-1,1.5-2.2,2.9-3.4,4.2s-2.7,2.4-4.2,3.4c-1.5,1-3.1,1.9-4.8,2.6-3.5,1.5-7.2,2.2-11,2.2s-7.5-.8-11-2.2c-1.7-.7-3.3-1.6-4.8-2.6-1.5-1-2.9-2.2-4.2-3.4s-2.4-2.7-3.5-4.2c-1-1.5-1.9-3.1-2.6-4.8-1.5-3.5-2.2-7.2-2.2-11s.8-7.5,2.2-11c.7-1.7,1.6-3.3,2.6-4.8,1-1.5,2.2-2.9,3.5-4.2s2.7-2.4,4.2-3.5c1.5-1,3.1-1.9,4.8-2.6,3.5-1.5,7.2-2.2,11-2.2s7.5.8,11,2.2c1.7.7,3.3,1.6,4.8,2.6,1.5,1,2.9,2.2,4.2,3.5s2.4,2.7,3.4,4.2c1,1.5,1.9,3.1,2.6,4.8,1.5,3.5,2.2,7.2,2.2,11s-.8,7.5-2.2,11c-.7,1.7-1.6,3.3-2.6,4.8h0Z"/>
      <g>
        <g>
          <path class="cls-5" d="M65.7,66.5c-.7,0-11.4,0-11.8,0-.4,0-.5-.3-.5-.4,0,.1.2.7.4,1.2.2.6.5.7,1,.7s9.6,0,10.8,0,1.5-1,1.5-1.2,0-1.6,0-1.6c0,.7-.6,1.4-1.3,1.4Z"/>
          <path class="cls-5" d="M53.3,66s0,0,0,0c0,0,0,0,0,0Z"/>
          <path class="cls-5" d="M56.1,63.3l.6-.5-2.5-2.4s-6.7,5.2-7.3,5.6c-1.2.9-2,1.2-2.9,0-.9-1.2-8.3-10.4-8.3-10.4l.2.8s7.3,9.1,8.2,10.3c.9,1.3,1.8,1.3,3.1.3s7.1-5.5,7.1-5.5l1.7,1.7Z"/>
          <path class="cls-5" d="M66.9,50.8c-.4.3-6.3,4.8-6.3,4.8l.7.6s5.5-4.2,5.7-4.4.4-.4.4-.7c0-.3,0-1.2,0-1.2,0,.4-.2.6-.5.9Z"/>
        </g>
        <path class="cls-3" d="M57.1,41.7s9.4,6.9,9.8,7.3.7,1.2,0,1.8-6.3,4.8-6.3,4.8l2.5,2.1,2.7-2.2c.4-.3.9,0,.9.4l.4,9.1c0,.7-.6,1.4-1.3,1.4h-11.8c-.5,0-.8-.7-.4-1l3.2-2.6-2.5-2.4s-6,4.7-7.3,5.6-2.1,1.1-2.9,0-8.3-10.4-8.3-10.4l21.3-13.9Z"/>
        <path class="cls-4" d="M52.2,48.8l8.4,6.8,2.5,2.1,2.7-2.2c.4-.3.9,0,.9.4l.4,9.1c0,.7-.6,1.4-1.3,1.4h-11.8c-.5,0-.8-.7-.4-1l3.2-2.6-2.5-2.4-8.3-7.8,6.2-3.8Z"/>
        <polygon class="cls-2" points="67.2 44 62.6 52.1 63.8 34.5 67.2 44"/>
        <polyline class="cls-3" points="63.8 34.5 50.9 43.2 62.6 52.1"/>
        <polygon class="cls-3" points="52.8 51.4 42.5 48.6 39.5 38.4 50.8 40.6 52.8 51.4"/>
        <polygon class="cls-2" points="52.8 51.4 58.4 43.8 57.3 33.7 50.8 40.6 52.8 51.4"/>
        <polygon class="cls-1" points="39.5 38.4 46.6 32.4 57.3 33.7 50.8 40.6 39.5 38.4"/>
        <circle class="cls-2" cx="42.3" cy="54.7" r="9.8"/>
      </g>
    </g>
  </g>
</svg>