<?xml version="1.0" encoding="UTF-8"?>
<svg id="SCRUM" xmlns="http://www.w3.org/2000/svg" viewBox="0 0 100 100">
  <defs>
    <style>
      .cls-1 {
        fill: #fff;
        fill-rule: evenodd;
      }
    </style>
  </defs>
  <g id="JAVASCRIPT-2" data-name="JAVASCRIPT">
    <g>
      <path class="cls-1" d="M80,71.85l-8.71-6.23v3.2h-10.43c-.23.3-.49.6-.75.88-.22.25-.46.48-.68.7-.2.19-.4.39-.62.6-1.64,1.51-3.47,2.74-5.46,3.69-.13.07-.26.12-.39.18h18.33v3.2l8.71-6.23Z"/>
      <path class="cls-1" d="M58.52,69.5c.21-.22.42-.44.62-.66,1.59-1.73,2.86-3.7,3.77-5.86,1.07-2.53,1.61-5.23,1.61-7.99s-.55-5.46-1.61-7.98c-1.03-2.44-2.51-4.64-4.39-6.53-1.89-1.88-4.08-3.35-6.53-4.39-.53-.23-1.07-.43-1.61-.61-1.54-.51-3.11-.82-4.72-.95-.55-.04-1.09-.07-1.65-.07-2.77,0-5.46.55-8,1.61-2.44,1.03-4.64,2.51-6.53,4.39s-3.35,4.08-4.4,6.53c-1.07,2.53-1.61,5.23-1.61,7.99h-3.48l6.23,8.71,6.23-8.71h-3.48c0-8.31,6.73-15.03,15.03-15,8.3,0,15.03,6.73,15.03,15.03v.19c-.1,7.59-6.33,13.66-13.92,13.66h-25.11v6.04h27.04c1.7,0,3.38-.32,4.94-.99.01,0,.01-.01.03-.01.27-.12.55-.23.81-.36,1.87-.9,3.59-2.05,5.12-3.47.2-.2.39-.38.59-.57Z"/>
      <path class="cls-1" d="M60.63,26.73c5.58,0,10.14,4.42,10.36,9.94h-2.9l5.32,7.43,5.32-7.43h-2.92c-.04-1.9-.44-3.74-1.18-5.49-.77-1.81-1.86-3.43-3.25-4.82s-3.02-2.48-4.82-3.25c-1.87-.79-3.86-1.2-5.92-1.2s-4.04.4-5.91,1.21c-1.81.75-3.43,1.86-4.82,3.25-1.39,1.39-2.48,3.02-3.25,4.82-.29.66-.52,1.35-.7,2.04,1.61.14,3.2.45,4.73.95,1.26-4.3,5.25-7.46,9.96-7.46Z"/>
    </g>
  </g>
</svg>