<?xml version="1.0" encoding="UTF-8"?>
<svg xmlns="http://www.w3.org/2000/svg" version="1.1" xmlns:xlink="http://www.w3.org/1999/xlink" viewBox="0 0 827 934">
  <defs>
    <style>
      .cls-1 {
        mask: url(#mask);
      }

      .cls-2 {
        fill: #9747ff;
      }

      .cls-3 {
        filter: url(#luminosity-noclip);
      }
    </style>
    <filter id="luminosity-noclip" x="78" y="91" width="663" height="753" color-interpolation-filters="sRGB" filterUnits="userSpaceOnUse">
      <feFlood flood-color="#fff" result="bg"/>
      <feBlend in="SourceGraphic" in2="bg"/>
    </filter>
    <mask id="mask" x="78" y="91" width="663" height="753" maskUnits="userSpaceOnUse">
      <g class="cls-3">
        <image width="663" height="753" transform="translate(78 91)" xlink:href="SPLASH-03-1.png"/>
      </g>
    </mask>
  </defs>
  <!-- Generator: Adobe Illustrator 28.6.0, SVG Export Plug-In . SVG Version: 1.2.0 Build 709)  -->
  <g>
    <g id="Ebene_1">
      <g class="cls-1">
        <g id="Ebene_1-2" data-name="Ebene_1">
          <path class="cls-2" d="M399.2,698.5c-2.6.9-27.7-1.8-29-1.9-101.5-6.6,55.1,63.4,94.3,91.6,15.3,11,26-6.3,24.6-28.1-.7-11.4-12.7-57-2-61,166.9-62.6,344.4-191.4,195.8-259.8-212.8-97.9-221-120.5-253.2-191.9S285.7,20.8,209.4,132.1s-97.8,162.2-94.8,230.1c3,67.9,133.4,96.5,9.8,191.6-123.6,95.2,37.3,379.9,170.8,256.9s-128.1-89.6,20.9-150.1c35.8-14.5,62.5-16.3,81.9-11.1,24.5,6.6,25.4,41.1,1.3,49.1h0Z"/>
        </g>
      </g>
    </g>
  </g>
</svg>