<?xml version="1.0" encoding="UTF-8"?>
<svg xmlns="http://www.w3.org/2000/svg" version="1.1" xmlns:xlink="http://www.w3.org/1999/xlink" viewBox="0 0 1084 940">
  <defs>
    <style>
      .cls-1 {
        mask: url(#mask);
      }

      .cls-2 {
        fill: #9747ff;
      }

      .cls-3 {
        filter: url(#luminosity-noclip);
      }
    </style>
    <filter id="luminosity-noclip" x="80" y="91" width="901" height="758" color-interpolation-filters="sRGB" filterUnits="userSpaceOnUse">
      <feFlood flood-color="#fff" result="bg"/>
      <feBlend in="SourceGraphic" in2="bg"/>
    </filter>
    <mask id="mask" x="80" y="91" width="901" height="758" maskUnits="userSpaceOnUse">
      <g class="cls-3">
        <image width="901" height="758" transform="translate(80 91)" xlink:href="SPLASH-04-1.png"/>
      </g>
    </mask>
  </defs>
  <!-- Generator: Adobe Illustrator 28.6.0, SVG Export Plug-In . SVG Version: 1.2.0 Build 709)  -->
  <g>
    <g id="Ebene_1">
      <g class="cls-1">
        <g id="Ebene_1-2" data-name="Ebene_1">
          <path class="cls-2" d="M780,625c-3.5-50.3,1-59.1-26.9-138.4-3.2-9.2,2.7-19.2,12.3-20.5,82.6-11.1,404.6,306.8,51.4,244.9-9-1.6-17.4,4.9-18.1,14-17.8,238.3-345.7,72.2-394-46.2-74.9-183.5-99-193-174.2-228S-1.1,306.1,137.2,259.1h.2c8.5-2.9,12.7-12.4,9.3-20.7-10.6-26.1-6.8-56.6,38.3-87.2C463.9-38.5,817.2,290.8,715.6,412.8c-78.9,94.8-16.3,179.1,39,225.1,10.5,8.8,26.4.7,25.5-12.9h0Z"/>
        </g>
      </g>
    </g>
  </g>
</svg>