<?xml version="1.0" encoding="UTF-8"?>
<svg xmlns="http://www.w3.org/2000/svg" version="1.1" xmlns:xlink="http://www.w3.org/1999/xlink" viewBox="0 0 740 736">
  <defs>
    <style>
      .cls-1 {
        mask: url(#mask);
      }

      .cls-2 {
        fill: #9747ff;
      }

      .cls-3 {
        filter: url(#luminosity-noclip);
      }
    </style>
    <filter id="luminosity-noclip" x="91" y="91" width="570" height="555" color-interpolation-filters="sRGB" filterUnits="userSpaceOnUse">
      <feFlood flood-color="#fff" result="bg"/>
      <feBlend in="SourceGraphic" in2="bg"/>
    </filter>
    <mask id="mask" x="91" y="91" width="570" height="555" maskUnits="userSpaceOnUse">
      <g class="cls-3">
        <image width="570" height="555" transform="translate(91 91)" xlink:href="SPLASH-01-1.png"/>
      </g>
    </mask>
  </defs>
  <!-- Generator: Adobe Illustrator 28.6.0, SVG Export Plug-In . SVG Version: 1.2.0 Build 709)  -->
  <g>
    <g id="Ebene_1">
      <g class="cls-1">
        <g id="Ebene_1-2" data-name="Ebene_1">
          <g id="Ebene_1-2">
            <path class="cls-2" d="M238,144.3c72.5-80.8,218.7-41.7,233.1-36.7,0,0,132.1-59.1,47.6,62.3-57.8,83.1,43.3,91.9,112.9,89.2,22.1-.9,35.3,22.6,22.1,39l-83.5,103.4c-12.9,16-39.6,12.6-47.6-6-28.6-67.2-96.8-178.4-216.4-105.3-45.1,27.5-46.6,48.4-62.4,86-10.9,26,3.8,55.1,32.1,64.4,50.2,16.4,71.6,83,157.8,92.1,569.7,60.1-237.4,110.4-237.4,110.4,0,0-19.3-55.4-16.4-123.1,1.1-26-11.6-50.8-33.9-66.5C6.1,354.7,184.7,204.2,238.3,144.5h0l-.2-.2h-.1Z"/>
          </g>
        </g>
      </g>
    </g>
  </g>
</svg>