<?xml version="1.0" encoding="UTF-8"?>
<svg id="TYPESCRIPT" xmlns="http://www.w3.org/2000/svg" viewBox="0 0 100 100">
  <defs>
    <style>
      .cls-1 {
        fill: #fff;
      }
    </style>
  </defs>
  <path class="cls-1" d="M79.95,24.75c-.44-2.29-2.21-4.15-4.48-4.64-.11-.03-.22-.03-.35-.05-.03,0-.05-.05-.08-.08H24.94s-.05.08-.11.08c-2.27.38-4.18,2.18-4.7,4.48-.03.08-.08.19-.14.3v50.22c.03.05.08.08.08.14.55,2.51,2.08,4.07,4.56,4.7.08.03.14.08.19.14h50.28c.05-.03.08-.08.14-.11,2.48-.57,4.02-2.08,4.64-4.56.03-.08,0-.19.03-.27,0-.03.05-.05.08-.08V24.92c0-.05-.05-.08-.05-.16ZM54.82,53.26h-7.46s-.03.03-.03.05v21.38h-5.98v-21.41h-7.51v-4.78h20.95v4.75h.03ZM74.97,67.55c-.05.93-.19,1.83-.57,2.7-.11.27-.19.52-.33.79-.49,1.04-1.31,1.78-2.27,2.38-1.09.68-2.29,1.07-3.55,1.31-1.39.27-2.79.36-4.21.3-.68-.03-1.37-.03-2.05-.11-1.61-.19-3.2-.55-4.67-1.26-.08-.03-.19-.16-.19-.25v-5.43c.44.3.87.6,1.31.85,1.07.63,2.24,1.07,3.44,1.34,1.04.25,2.08.27,3.11.22.79-.03,1.58-.22,2.29-.57.63-.33,1.15-.76,1.28-1.5.14-.66.08-1.31-.3-1.88-.55-.82-1.31-1.34-2.16-1.78-.96-.46-1.91-.87-2.9-1.31-1.45-.66-2.87-1.37-4.04-2.46-.96-.9-1.67-1.97-1.99-3.25-.19-.76-.25-1.53-.22-2.29.03-1.88.71-3.5,2.05-4.83,1.09-1.09,2.43-1.75,3.91-2.13,1.01-.25,2.02-.44,3.06-.46.74,0,1.48-.08,2.18-.05,1.12.03,2.21.08,3.3.36.71.19,1.45.38,2.16.55.14.03.19.11.19.27v5.11c0,.05,0,.11-.03.19-.22-.14-.41-.25-.6-.36-.87-.49-1.8-.82-2.76-1.07-1.07-.25-2.13-.41-3.22-.38-.74.03-1.5.14-2.18.38-.85.3-1.53.79-1.83,1.69-.24.71-.05,1.31.38,1.88.55.71,1.28,1.2,2.08,1.58,1.07.52,2.16.96,3.2,1.45,1.2.57,2.4,1.15,3.41,1.99.87.74,1.67,1.56,2.1,2.65.25.66.46,1.34.46,2.08.11.44.16.87.14,1.31Z"/>
</svg>