<?xml version="1.0" encoding="UTF-8"?>
<svg id="WORDPRESS" xmlns="http://www.w3.org/2000/svg" viewBox="0 0 100 100">
  <defs>
    <style>
      .cls-1 {
        fill: #fff;
      }
    </style>
  </defs>
  <path class="cls-1" d="M50.44,52.19l-7.51,21.8c2.24.66,4.61,1.02,7.07,1.02,2.91,0,5.71-.5,8.3-1.41-.06-.11-.13-.22-.18-.34l-7.68-21.06Z"/>
  <path class="cls-1" d="M66.88,48.74c0-3.09-1.11-5.23-2.06-6.89-1.27-2.06-2.46-3.81-2.46-5.86,0-2.3,1.75-4.44,4.2-4.44.11,0,.22,0,.32.02-4.45-4.08-10.38-6.56-16.89-6.56-8.73,0-16.42,4.48-20.89,11.27.59.02,1.14.03,1.61.03,2.61,0,6.66-.32,6.66-.32,1.35-.08,1.5,1.9.16,2.06,0,0-1.36.16-2.86.23l9.11,27.08,5.47-16.41-3.9-10.67c-1.35-.08-2.62-.23-2.62-.23-1.35-.08-1.19-2.14.16-2.06,0,0,4.13.32,6.59.32,2.61,0,6.66-.32,6.66-.32,1.35-.08,1.5,1.9.16,2.06,0,0-1.36.16-2.86.23l9.03,26.88,2.58-8.17c1.14-3.57,1.82-6.1,1.82-8.24Z"/>
  <path class="cls-1" d="M25,50c0,9.89,5.75,18.45,14.1,22.5l-11.93-32.67c-1.39,3.11-2.17,6.55-2.17,10.17Z"/>
  <path class="cls-1" d="M72.11,40.59c0,2.54-.48,5.39-1.9,8.96l-7.64,22.07c7.43-4.33,12.43-12.39,12.43-21.61,0-4.35-1.11-8.43-3.06-11.99.11.79.17,1.65.17,2.57Z"/>
  <path class="cls-1" d="M50,20c-16.57,0-30,13.43-30,30s13.43,30,30,30,30-13.43,30-30c0-16.57-13.43-30-30-30ZM73.39,65.78c-1.01,1.49-2.17,2.9-3.45,4.18-1.28,1.28-2.68,2.44-4.18,3.45-1.5,1.02-3.12,1.89-4.79,2.6-3.47,1.47-7.16,2.21-10.98,2.21s-7.5-.75-10.98-2.21c-1.67-.71-3.29-1.58-4.79-2.6-1.49-1.01-2.9-2.17-4.18-3.45s-2.44-2.68-3.45-4.18c-1.02-1.5-1.89-3.12-2.6-4.79-1.46-3.48-2.21-7.18-2.21-10.99s.75-7.5,2.21-10.98c.71-1.67,1.58-3.29,2.6-4.79,1.01-1.49,2.17-2.9,3.45-4.18,1.28-1.28,2.68-2.44,4.18-3.45,1.5-1.02,3.12-1.89,4.79-2.6,3.47-1.46,7.16-2.21,10.97-2.21s7.5.75,10.98,2.21c1.67.71,3.28,1.58,4.79,2.6,1.49,1.01,2.9,2.17,4.18,3.45,1.28,1.28,2.44,2.68,3.45,4.18,1.02,1.5,1.89,3.12,2.6,4.79,1.47,3.47,2.21,7.16,2.21,10.98s-.75,7.5-2.21,10.98c-.71,1.67-1.58,3.29-2.6,4.79Z"/>
</svg>