<?xml version="1.0" encoding="UTF-8"?>
<svg xmlns="http://www.w3.org/2000/svg" version="1.1" viewBox="0 0 832.1 747.1">
  <defs>
    <style>
      .cls-1 {
        fill: #00bee8;
      }

      .cls-2 {
        fill: #1cdae6;
      }

      .cls-3 {
        fill: #1ce6b6;
      }

      .cls-4 {
        fill: #9747ff;
      }

      .cls-5 {
        fill: #141d2f;
      }

      .cls-6 {
        fill: #fa7902;
      }

      .cls-7 {
        fill: #fff;
        font-family: ArialMT, Arial;
        font-size: 27px;
      }

      .cls-7, .cls-8 {
        isolation: isolate;
      }

      .cls-9 {
        fill: #ff4747;
      }

      .cls-10 {
        fill: #70e61c;
      }

      .cls-11 {
        fill: #3662c1;
      }

      .cls-12 {
        fill: #d61ce6;
      }
    </style>
  </defs>
  <!-- Generator: Adobe Illustrator 28.6.0, SVG Export Plug-In . SVG Version: 1.2.0 Build 709)  -->
  <g>
    <g id="Ebene_1">
      <path class="cls-5" d="M58.3,57.2c.6,0,1.1.3,1.6.7s.9.9,1.1,1.4c.3.6.4,1.2.4,1.8s-.2,1.5-.6,2.2c-.4.6-1,1.2-1.8,1.5-.8.4-1.7.6-2.8.6h-6v-16h5.7c1.1,0,2,.2,2.8.6.8.4,1.3.8,1.7,1.4.4.6.6,1.3.6,2.1s-.3,1.7-.8,2.4c-.5.6-1.2,1.1-2,1.3h0ZM52.4,56.4h3.5c1,0,1.7-.2,2.3-.7.5-.5.8-1.1.8-1.9s-.3-1.4-.8-1.9-1.3-.7-2.3-.7h-3.5v5.2ZM56.1,63.7c1,0,1.9-.2,2.4-.7.6-.5.9-1.2.9-2s-.3-1.6-.9-2.1c-.6-.5-1.4-.8-2.5-.8h-3.6v5.7h3.7,0ZM63.6,59.1c0-1.3.3-2.4.8-3.4.5-1,1.2-1.7,2.1-2.3.9-.5,1.9-.8,3.1-.8s2.1.2,2.9.7,1.4,1.1,1.8,1.8v-2.3h2.1v12.6h-2.1v-2.3c-.4.7-1,1.3-1.9,1.8-.8.5-1.8.7-2.9.7s-2.1-.3-3-.8c-.9-.6-1.6-1.3-2.1-2.3s-.8-2.1-.8-3.4ZM74.3,59.1c0-1-.2-1.8-.6-2.5s-.9-1.2-1.6-1.6c-.6-.4-1.4-.6-2.1-.6s-1.5.2-2.1.6c-.6.4-1.2.9-1.5,1.6-.4.7-.6,1.5-.6,2.5s.2,1.8.6,2.5.9,1.2,1.5,1.6c.6.4,1.4.6,2.1.6s1.5-.2,2.1-.6c.7-.4,1.2-.9,1.6-1.6.4-.7.6-1.6.6-2.5ZM79.2,59.1c0-1.3.3-2.4.8-3.4s1.2-1.7,2.2-2.3c.9-.5,2-.8,3.2-.8s2.8.4,3.8,1.1c1,.8,1.7,1.8,2,3.1h-2.3c-.2-.8-.6-1.4-1.3-1.8-.6-.4-1.4-.7-2.3-.7s-2.2.4-2.9,1.2c-.7.8-1.1,2-1.1,3.5s.4,2.7,1.1,3.5,1.7,1.2,2.9,1.2,1.7-.2,2.3-.6c.6-.4,1-1,1.3-1.8h2.3c-.3,1.3-1,2.3-2,3.1s-2.3,1.2-3.8,1.2-2.3-.3-3.2-.8c-.9-.5-1.6-1.3-2.2-2.3-.5-1-.8-2.1-.8-3.5h0ZM100.9,65.5l-4.9-5.6v5.6h-2.1v-17h2.1v10l4.9-5.6h2.9l-5.9,6.3,6,6.3h-3ZM110.9,52.7c1.1,0,2,.2,2.9.7.8.5,1.4,1.1,1.8,1.8v-2.3h2.1v12.9c0,1.1-.2,2.2-.7,3.1s-1.2,1.6-2.1,2.1-2,.8-3.2.8-3-.4-4.1-1.2c-1.1-.8-1.8-1.8-2-3.2h2.1c.2.8.7,1.4,1.4,1.8.7.5,1.6.7,2.6.7s2.1-.4,2.8-1.1c.7-.7,1.1-1.7,1.1-3v-2.6c-.4.7-1,1.3-1.8,1.8s-1.8.7-2.9.7-2.1-.3-3.1-.8c-.9-.6-1.6-1.3-2.1-2.3s-.8-2.1-.8-3.4.3-2.4.8-3.4,1.2-1.7,2.1-2.3c.9-.5,1.9-.8,3.1-.8ZM115.6,59.1c0-1-.2-1.8-.6-2.5s-.9-1.2-1.6-1.6c-.6-.4-1.4-.6-2.1-.6s-1.5.2-2.1.6-1.2.9-1.5,1.6c-.4.7-.6,1.5-.6,2.5s.2,1.8.6,2.5.9,1.2,1.5,1.6c.6.4,1.4.6,2.1.6s1.5-.2,2.1-.6c.7-.4,1.2-.9,1.6-1.6.4-.7.6-1.6.6-2.5ZM123.4,54.9c.4-.7.9-1.3,1.6-1.7s1.5-.6,2.5-.6v2.2h-.6c-2.3,0-3.5,1.3-3.5,3.8v6.9h-2.1v-12.6h2.1v2ZM135.4,65.7c-1.2,0-2.3-.3-3.2-.8-1-.5-1.7-1.3-2.3-2.3-.5-1-.8-2.1-.8-3.5s.3-2.4.8-3.4c.6-1,1.3-1.8,2.3-2.3s2-.8,3.2-.8,2.3.3,3.2.8c1,.5,1.7,1.3,2.3,2.3s.9,2.1.9,3.4-.3,2.5-.9,3.5c-.6,1-1.3,1.7-2.3,2.3s-2.1.8-3.3.8h.1ZM135.4,63.8c.8,0,1.5-.2,2.1-.5.7-.4,1.2-.9,1.6-1.6.4-.7.6-1.6.6-2.6s-.2-1.9-.6-2.6c-.4-.7-.9-1.2-1.6-1.6-.6-.4-1.3-.5-2.1-.5s-1.5.2-2.1.5-1.1.9-1.5,1.6c-.4.7-.6,1.6-.6,2.6s.2,1.9.6,2.6c.4.7.9,1.2,1.5,1.6.6.3,1.3.5,2.1.5ZM155.8,52.9v12.6h-2.1v-1.9c-.4.6-1,1.1-1.7,1.5s-1.5.5-2.3.5-1.9-.2-2.6-.6c-.8-.4-1.4-1-1.9-1.8-.4-.8-.7-1.8-.7-3v-7.4h2.1v7.1c0,1.2.3,2.2.9,2.9.6.7,1.5,1,2.6,1s2-.3,2.6-1,1-1.7,1-3v-6.9h2.1,0ZM165.4,52.6c1.5,0,2.8.5,3.7,1.4,1,.9,1.4,2.3,1.4,4v7.4h-2.1v-7.1c0-1.3-.3-2.2-.9-2.9-.6-.7-1.5-1-2.6-1s-2,.3-2.6,1-1,1.7-1,3v7h-2.1v-12.6h2.1v1.8c.4-.6,1-1.1,1.7-1.5s1.5-.5,2.4-.5h0ZM173.2,59.1c0-1.3.3-2.4.8-3.4s1.2-1.7,2.1-2.3c.9-.5,1.9-.8,3.1-.8s1.9.2,2.7.7c.8.4,1.5,1,1.9,1.8v-6.7h2.1v17h-2.1v-2.4c-.4.8-1,1.4-1.8,1.9s-1.8.7-2.9.7-2.1-.3-3.1-.8c-.9-.6-1.6-1.3-2.1-2.3s-.8-2.1-.8-3.4h.1ZM183.9,59.1c0-1-.2-1.8-.6-2.5-.4-.7-.9-1.2-1.6-1.6-.6-.4-1.4-.6-2.1-.6s-1.5.2-2.1.6-1.2.9-1.5,1.6c-.4.7-.6,1.5-.6,2.5s.2,1.8.6,2.5c.4.7.9,1.2,1.5,1.6.6.4,1.4.6,2.1.6s1.5-.2,2.1-.6c.7-.4,1.2-.9,1.6-1.6.4-.7.6-1.6.6-2.5Z"/>
      <rect class="cls-5" x="37.2" y="115.6" width="162" height="162"/>
      <g class="cls-8">
        <text class="cls-7" transform="translate(71.6 204.5)"><tspan x="0" y="0">#141d2f</tspan></text>
      </g>
      <path class="cls-5" d="M278.3,54.1c0,1.3-.5,2.4-1.4,3.3-.9.9-2.3,1.3-4.2,1.3h-3.1v6.7h-2.1v-16h5.2c1.8,0,3.2.4,4.1,1.3,1,.9,1.4,2,1.4,3.4h.1ZM272.7,57.1c1.2,0,2-.3,2.6-.8s.8-1.2.8-2.2c0-2-1.1-3-3.4-3h-3.1v5.9h3.1ZM283,54.9c.4-.7.9-1.3,1.6-1.7s1.5-.6,2.5-.6v2.2h-.6c-2.3,0-3.5,1.3-3.5,3.8v6.9h-2.1v-12.6h2.1v2ZM290.5,50.8c-.4,0-.7,0-1-.4-.3-.3-.4-.6-.4-1s.1-.7.4-1,.6-.4,1-.4.7,0,1,.4c.3.3.4.6.4,1s-.1.7-.4,1-.6.4-1,.4ZM291.6,52.9v12.6h-2.1v-12.6h2.1ZM310.3,52.7c1,0,1.9.2,2.6.6.8.4,1.4,1,1.8,1.8s.7,1.8.7,3v7.4h-2.1v-7.1c0-1.3-.3-2.2-.9-2.9s-1.4-1-2.5-1-2,.4-2.6,1.1c-.6.7-1,1.7-1,3v6.9h-2.1v-7.1c0-1.3-.3-2.2-.9-2.9s-1.4-1-2.5-1-2,.4-2.6,1.1c-.6.7-1,1.7-1,3v6.9h-2.1v-12.6h2.1v1.8c.4-.7,1-1.2,1.7-1.5.7-.4,1.5-.5,2.3-.5s2,.2,2.8.7,1.4,1.2,1.8,2.1c.4-.9.9-1.6,1.7-2.1.8-.5,1.7-.7,2.7-.7h.1ZM318,59.1c0-1.3.3-2.4.8-3.4s1.2-1.7,2.1-2.3c.9-.5,1.9-.8,3.1-.8s2.1.2,2.9.7,1.4,1.1,1.8,1.8v-2.3h2.1v12.6h-2.1v-2.3c-.4.7-1,1.3-1.9,1.8-.8.5-1.8.7-2.9.7s-2.1-.3-3-.8c-.9-.6-1.6-1.3-2.1-2.3s-.8-2.1-.8-3.4ZM328.7,59.2c0-1-.2-1.8-.6-2.5s-.9-1.2-1.6-1.6c-.6-.4-1.4-.6-2.1-.6s-1.5.2-2.1.6-1.2.9-1.5,1.6c-.4.7-.6,1.5-.6,2.5s.2,1.8.6,2.5.9,1.2,1.5,1.6c.6.4,1.4.6,2.1.6s1.5-.2,2.1-.6c.7-.4,1.2-.9,1.6-1.6.4-.7.6-1.6.6-2.5ZM336.5,54.9c.4-.7.9-1.3,1.6-1.7s1.5-.6,2.5-.6v2.2h-.6c-2.3,0-3.5,1.3-3.5,3.8v6.9h-2.1v-12.6h2.1v2ZM353.8,52.9l-7.6,18.5h-2.2l2.5-6.1-5.1-12.5h2.3l4,10.2,3.9-10.2h2.2ZM361.1,50.8v-1.9h4.3v16.6h-2.1v-14.7h-2.2,0Z"/>
      <rect class="cls-10" x="631.9" y="543.4" width="162" height="162"/>
      <rect class="cls-11" x="235.5" y="329.4" width="162" height="162"/>
      <rect class="cls-9" x="235.5" y="543.4" width="162" height="162"/>
      <g class="cls-8">
        <text class="cls-7" transform="translate(666.4 632.3)"><tspan x="0" y="0">#70e61c</tspan></text>
      </g>
      <g class="cls-8">
        <text class="cls-7" transform="translate(270 418.3)"><tspan x="0" y="0">#4b47ff</tspan></text>
      </g>
      <g class="cls-8">
        <text class="cls-7" transform="translate(270 632.4)"><tspan x="0" y="0">#ff4747</tspan></text>
      </g>
      <path class="cls-5" d="M473.1,54.1c0,1.3-.5,2.4-1.4,3.3-.9.9-2.3,1.3-4.2,1.3h-3.1v6.7h-2.1v-16h5.2c1.8,0,3.2.4,4.1,1.3,1,.9,1.4,2,1.4,3.4h.1ZM467.6,57c1.2,0,2-.3,2.6-.8s.8-1.2.8-2.2c0-2-1.1-3-3.4-3h-3.1v5.9h3.1ZM477.8,54.9c.4-.7.9-1.3,1.6-1.7s1.5-.6,2.5-.6v2.2h-.6c-2.3,0-3.5,1.3-3.5,3.8v6.9h-2.1v-12.6h2.1v2ZM485.4,50.8c-.4,0-.7,0-1-.4-.3-.3-.4-.6-.4-1s.1-.7.4-1,.6-.4,1-.4.7,0,1,.4c.3.3.4.6.4,1s-.1.7-.4,1-.6.4-1,.4ZM486.4,52.9v12.6h-2.1v-12.6h2.1ZM505.1,52.6c1,0,1.9.2,2.6.6.8.4,1.4,1,1.8,1.8s.7,1.8.7,3v7.4h-2.1v-7.1c0-1.3-.3-2.2-.9-2.9s-1.4-1-2.5-1-2,.4-2.6,1.1c-.6.7-1,1.7-1,3v6.9h-2.1v-7.1c0-1.3-.3-2.2-.9-2.9s-1.4-1-2.5-1-2,.4-2.6,1.1c-.6.7-1,1.7-1,3v6.9h-2.1v-12.6h2.1v1.8c.4-.7,1-1.2,1.7-1.5.7-.4,1.5-.5,2.3-.5s2,.2,2.8.7,1.4,1.2,1.8,2.1c.4-.9.9-1.6,1.7-2.1.8-.5,1.7-.7,2.7-.7h.1ZM512.9,59.1c0-1.3.3-2.4.8-3.4s1.2-1.7,2.1-2.3c.9-.5,1.9-.8,3.1-.8s2.1.2,2.9.7c.8.5,1.4,1.1,1.8,1.8v-2.3h2.1v12.6h-2.1v-2.3c-.4.7-1,1.3-1.9,1.8-.8.5-1.8.7-2.9.7s-2.1-.3-3-.8c-.9-.6-1.6-1.3-2.1-2.3s-.8-2.1-.8-3.4h0ZM523.6,59.1c0-1-.2-1.8-.6-2.5-.4-.7-.9-1.2-1.6-1.6-.6-.4-1.4-.6-2.1-.6s-1.5.2-2.1.6-1.2.9-1.5,1.6c-.4.7-.6,1.5-.6,2.5s.2,1.8.6,2.5c.4.7.9,1.2,1.5,1.6.6.4,1.4.6,2.1.6s1.5-.2,2.1-.6c.7-.4,1.2-.9,1.6-1.6.4-.7.6-1.6.6-2.5ZM531.3,54.9c.4-.7.9-1.3,1.6-1.7.7-.4,1.5-.6,2.5-.6v2.2h-.6c-2.3,0-3.5,1.3-3.5,3.8v6.9h-2.1v-12.6h2.1v2ZM548.6,52.9l-7.6,18.5h-2.2l2.5-6.1-5.1-12.5h2.3l4,10.2,3.9-10.2h2.2,0ZM556.3,63.8c1.9-1.6,3.5-2.8,4.6-3.8s2-2.1,2.8-3.2c.8-1.1,1.1-2.2,1.1-3.2s-.2-1.8-.7-2.3c-.5-.6-1.2-.9-2.3-.9s-1.9.3-2.4,1c-.6.6-.9,1.5-.9,2.6h-2c0-1.7.6-3,1.6-4,1-.9,2.2-1.4,3.8-1.4s2.8.4,3.7,1.3c.9.9,1.4,2.1,1.4,3.6s-.4,2.5-1.1,3.7c-.8,1.2-1.6,2.3-2.6,3.2s-2.2,2-3.7,3.2h7.9v1.7h-11.1v-1.5h0Z"/>
      <rect class="cls-4" x="631.9" y="115.6" width="162" height="162"/>
      <rect class="cls-1" x="433.9" y="329.4" width="162" height="162"/>
      <rect class="cls-6" x="433.9" y="543.4" width="162" height="162"/>
      <g class="cls-8">
        <text class="cls-7" transform="translate(666.4 204.5)"><tspan x="0" y="0">#9747ff</tspan></text>
      </g>
      <g class="cls-8">
        <text class="cls-7" transform="translate(468.4 418.3)"><tspan x="0" y="0">#00bee8</tspan></text>
      </g>
      <g class="cls-8">
        <text class="cls-7" transform="translate(468.4 632.4)"><tspan x="0" y="0">#fa7902</tspan></text>
      </g>
      <path class="cls-5" d="M657.7,93.6c-1.1,0-2-.2-2.9-.6-.8-.4-1.5-.9-2-1.6s-.7-1.4-.7-2.3h2.2c0,.8.4,1.4.9,1.9.6.5,1.3.8,2.4.8s1.8-.2,2.3-.7c.6-.5.9-1.1.9-1.9s-.2-1.1-.5-1.5-.8-.7-1.3-.9c-.5-.2-1.2-.4-2-.6-1.1-.3-1.9-.6-2.6-.8-.6-.3-1.2-.7-1.6-1.3-.4-.6-.7-1.4-.7-2.4s.2-1.6.7-2.3c.4-.7,1.1-1.2,1.9-1.6.8-.4,1.7-.6,2.8-.6s2.7.4,3.7,1.1c1,.8,1.5,1.7,1.6,3h-2.3c0-.6-.4-1.2-1-1.6-.6-.5-1.3-.7-2.3-.7s-1.6.2-2.1.7c-.6.4-.8,1.1-.8,1.9s.2,1.1.5,1.4c.3.4.7.7,1.2.9.5.2,1.2.4,2,.6,1.1.3,1.9.6,2.6.9.6.3,1.2.7,1.7,1.3.5.6.7,1.4.7,2.4s-.2,1.5-.6,2.2c-.4.7-1,1.2-1.8,1.7-.8.4-1.8.6-2.9.6h0ZM677.6,86.7v1.3h-10.1c0,1.2.5,2.2,1.3,2.9.8.7,1.7,1,2.8,1s1.7-.2,2.3-.6,1-1,1.3-1.7h2.3c-.3,1.2-1,2.2-2,3s-2.3,1.1-3.8,1.1-2.3-.3-3.2-.8-1.7-1.3-2.2-2.3-.8-2.1-.8-3.5.3-2.4.8-3.4,1.2-1.7,2.2-2.3c1-.5,2-.8,3.3-.8s2.3.3,3.2.8,1.6,1.2,2.1,2.2c.5.9.8,1.9.8,3.1h-.3ZM675.5,86.2c0-.8-.2-1.5-.5-2-.4-.6-.8-1-1.4-1.3-.6-.3-1.3-.5-2-.5-1.1,0-2,.3-2.7,1s-1.2,1.6-1.3,2.8h8,0ZM679.6,87.1c0-1.3.3-2.4.8-3.4s1.2-1.7,2.2-2.3c.9-.5,2-.8,3.2-.8s2.8.4,3.8,1.1c1,.8,1.7,1.8,2,3.1h-2.3c-.2-.8-.6-1.4-1.3-1.8-.6-.4-1.4-.7-2.3-.7s-2.2.4-2.9,1.2c-.7.8-1.1,2-1.1,3.5s.4,2.7,1.1,3.5c.7.8,1.7,1.2,2.9,1.2s1.7-.2,2.3-.6,1-1,1.3-1.8h2.3c-.3,1.3-1,2.3-2,3.1-1,.8-2.3,1.2-3.8,1.2s-2.3-.3-3.2-.8-1.6-1.3-2.2-2.3c-.5-1-.8-2.1-.8-3.5h0ZM699.9,93.7c-1.2,0-2.3-.3-3.2-.8-1-.5-1.7-1.3-2.3-2.3-.5-1-.8-2.1-.8-3.5s.3-2.4.8-3.4c.6-1,1.3-1.8,2.3-2.3s2-.8,3.2-.8,2.3.3,3.2.8c1,.5,1.7,1.3,2.3,2.3s.9,2.1.9,3.4-.3,2.5-.9,3.5c-.6,1-1.3,1.7-2.3,2.3-1,.5-2.1.8-3.3.8h0ZM699.9,91.8c.8,0,1.5-.2,2.1-.5.7-.4,1.2-.9,1.6-1.6.4-.7.6-1.6.6-2.6s-.2-1.9-.6-2.6c-.4-.7-.9-1.2-1.6-1.6-.6-.4-1.3-.5-2.1-.5s-1.5.2-2.1.5-1.1.9-1.5,1.6-.6,1.6-.6,2.6.2,1.9.6,2.6c.4.7.9,1.2,1.5,1.6.6.3,1.3.5,2.1.5ZM715.2,80.6c1.5,0,2.8.5,3.7,1.4,1,.9,1.4,2.3,1.4,4v7.4h-2.1v-7.1c0-1.3-.3-2.2-.9-2.9-.6-.7-1.5-1-2.6-1s-2,.3-2.6,1-1,1.7-1,3v7h-2.1v-12.6h2.1v1.8c.4-.6,1-1.1,1.7-1.5s1.5-.5,2.4-.5h0ZM723,87.1c0-1.3.3-2.4.8-3.4s1.2-1.7,2.1-2.3c.9-.5,1.9-.8,3.1-.8s1.9.2,2.7.7c.8.4,1.5,1,1.9,1.8v-6.7h2.1v17h-2.1v-2.4c-.4.8-1,1.4-1.8,1.9s-1.8.7-2.9.7-2.1-.3-3.1-.8c-.9-.6-1.6-1.3-2.1-2.3s-.8-2.1-.8-3.4h0ZM733.7,87.1c0-1-.2-1.8-.6-2.5-.4-.7-.9-1.2-1.6-1.6-.6-.4-1.4-.6-2.1-.6s-1.5.2-2.1.6-1.2.9-1.5,1.6c-.4.7-.6,1.5-.6,2.5s.2,1.8.6,2.5c.4.7.9,1.2,1.5,1.6s1.4.6,2.1.6,1.5-.2,2.1-.6c.7-.4,1.2-.9,1.6-1.6.4-.7.6-1.6.6-2.5ZM738.6,87.1c0-1.3.3-2.4.8-3.4s1.2-1.7,2.1-2.3c.9-.5,1.9-.8,3.1-.8s2.1.2,2.9.7c.8.5,1.4,1.1,1.8,1.8v-2.3h2.1v12.6h-2.1v-2.3c-.4.7-1,1.3-1.9,1.8-.8.5-1.8.7-2.9.7s-2.1-.3-3-.8c-.9-.6-1.6-1.3-2.1-2.3s-.8-2.1-.8-3.4h0ZM749.2,87.1c0-1-.2-1.8-.6-2.5-.4-.7-.9-1.2-1.6-1.6-.6-.4-1.4-.6-2.1-.6s-1.5.2-2.1.6-1.2.9-1.5,1.6c-.4.7-.6,1.5-.6,2.5s.2,1.8.6,2.5c.4.7.9,1.2,1.5,1.6s1.4.6,2.1.6,1.5-.2,2.1-.6c.7-.4,1.2-.9,1.6-1.6.4-.7.6-1.6.6-2.5ZM757,82.9c.4-.7.9-1.3,1.6-1.7.7-.4,1.5-.6,2.5-.6v2.2h-.6c-2.3,0-3.5,1.3-3.5,3.8v6.9h-2.1v-12.6h2.1s0,2,0,2ZM774.3,80.8l-7.6,18.5h-2.2l2.5-6.1-5.1-12.5h2.3l4,10.2,3.9-10.2h2.2,0Z"/>
      <g>
        <polygon class="cls-5" points="676.1 49.4 670 65.4 667.6 65.4 661.6 49.4 663.8 49.4 668.8 63.2 673.9 49.4 676.1 49.4"/>
        <path class="cls-5" d="M689.9,58.7c0-1.2-.3-2.2-.8-3.1-.5-.9-1.2-1.6-2.1-2.2-.9-.5-2-.8-3.2-.8s-2.3.3-3.3.8c-.9.5-1.7,1.3-2.2,2.3s-.8,2.1-.8,3.4.3,2.5.8,3.5,1.3,1.7,2.2,2.3c1,.5,2,.8,3.2.8s2.8-.4,3.8-1.1c1-.8,1.7-1.8,2-3h-2.3c-.2.7-.7,1.3-1.3,1.7s-1.3.6-2.3.6-2-.3-2.8-1-1.2-1.7-1.3-2.9h10.1v-1.3h.3ZM679.8,58.2c0-1.2.5-2.1,1.3-2.8s1.7-1,2.7-1,1.4.2,2,.5,1.1.7,1.4,1.3c.4.6.5,1.2.5,2h-8,0Z"/>
        <path class="cls-5" d="M694.7,54.9c.4-.7.9-1.3,1.6-1.7.7-.4,1.5-.6,2.5-.6v2.2h-.6c-2.3,0-3.5,1.3-3.5,3.8v6.9h-2.1v-12.6h2.1v2Z"/>
        <path class="cls-5" d="M705.7,65.7c-1,0-1.8-.2-2.6-.5s-1.4-.8-1.8-1.4c-.4-.6-.7-1.3-.7-2h2.2c0,.6.4,1.1.9,1.5s1.2.6,2.1.6,1.4-.2,1.9-.5c.5-.4.7-.8.7-1.3s-.2-1-.7-1.2c-.5-.3-1.2-.5-2.3-.8-.9-.2-1.7-.5-2.3-.7-.6-.3-1.1-.6-1.5-1.1s-.6-1.2-.6-2,.2-1.2.6-1.8c.4-.5.9-1,1.6-1.3.7-.3,1.5-.5,2.4-.5,1.4,0,2.5.4,3.4,1.1.9.7,1.3,1.7,1.4,2.9h-2.1c0-.7-.3-1.2-.8-1.6-.5-.4-1.1-.6-1.9-.6s-1.3.2-1.8.5c-.4.3-.7.7-.7,1.3s0,.8.4,1c.3.3.6.5,1,.6.4.2,1,.3,1.7.5.9.2,1.6.5,2.2.7.6.2,1.1.6,1.4,1.1.4.5.6,1.1.6,1.9s-.2,1.3-.6,1.9c-.4.6-.9,1-1.6,1.3-.7.3-1.5.5-2.4.5h-.1Z"/>
        <path class="cls-5" d="M714.3,50.8c-.4,0-.7,0-1-.4s-.4-.6-.4-1,0-.7.4-1c.3-.3.6-.4,1-.4s.7,0,1,.4c.3.3.4.6.4,1s0,.7-.4,1c-.3.3-.6.4-1,.4Z"/>
        <rect class="cls-5" x="713.2" y="52.8" width="2.1" height="12.6"/>
        <path class="cls-5" d="M730,55.7c-.6-1-1.3-1.7-2.3-2.3-1-.5-2-.8-3.2-.8s-2.3.3-3.2.8c-1,.5-1.7,1.3-2.3,2.3s-.8,2.1-.8,3.4.3,2.5.8,3.5c.6,1,1.3,1.7,2.3,2.3,1,.5,2,.8,3.2.8s2.3-.3,3.3-.8,1.8-1.3,2.3-2.3c.6-1,.9-2.1.9-3.5s-.3-2.4-.9-3.4h0ZM728.1,61.7c-.4.7-.9,1.2-1.6,1.6-.7.4-1.4.5-2.1.5s-1.4-.2-2.1-.5c-.6-.4-1.1-.9-1.5-1.6-.4-.7-.6-1.6-.6-2.6s.2-1.9.6-2.6c.4-.7.9-1.2,1.5-1.6.6-.4,1.3-.5,2.1-.5s1.4.2,2.1.5c.6.3,1.2.9,1.6,1.6.4.7.6,1.6.6,2.6s-.2,1.9-.6,2.6Z"/>
        <path class="cls-5" d="M739.8,52.6c1.5,0,2.8.5,3.7,1.4,1,.9,1.4,2.3,1.4,4v7.4h-2.1v-7.1c0-1.3-.3-2.2-.9-2.9-.6-.7-1.5-1-2.6-1s-2,.3-2.6,1-1,1.7-1,3v7h-2.1v-12.6h2.1v1.8c.4-.6,1-1.1,1.7-1.5s1.5-.5,2.4-.5h0Z"/>
        <path class="cls-5" d="M753.9,63.8c1.9-1.6,3.5-2.8,4.6-3.8s2-2.1,2.8-3.2c.8-1.1,1.2-2.2,1.2-3.2s-.2-1.8-.7-2.3c-.5-.6-1.2-.9-2.3-.9s-1.9.3-2.4,1c-.6.6-.9,1.5-.9,2.6h-2c0-1.7.6-3,1.6-4s2.2-1.4,3.8-1.4,2.8.4,3.7,1.3c.9.9,1.4,2.1,1.4,3.6s-.4,2.5-1.1,3.7c-.8,1.2-1.6,2.3-2.6,3.2s-2.2,2-3.7,3.2h7.9v1.7h-11.1v-1.5h-.2Z"/>
      </g>
      <rect class="cls-3" x="235.5" y="115.4" width="162" height="162"/>
      <g class="cls-8">
        <text class="cls-7" transform="translate(270 204.3)"><tspan x="0" y="0">#1ce6b6</tspan></text>
      </g>
      <rect class="cls-2" x="434.1" y="115.6" width="162" height="162"/>
      <g class="cls-8">
        <text class="cls-7" transform="translate(468.6 204.5)"><tspan x="0" y="0">#1cdae6</tspan></text>
      </g>
      <rect class="cls-12" x="632.2" y="329.5" width="162" height="162"/>
      <g class="cls-8">
        <text class="cls-7" transform="translate(666.7 418.5)"><tspan x="0" y="0">#d61ce6</tspan></text>
      </g>
    </g>
  </g>
</svg>