<?xml version="1.0" encoding="UTF-8"?>
<svg xmlns="http://www.w3.org/2000/svg" version="1.1" xmlns:xlink="http://www.w3.org/1999/xlink" viewBox="0 0 1000 1000">
  <defs>
    <style>
      .cls-1 {
        fill: #fff;
      }

      .cls-2 {
        fill: none;
      }

      .cls-3 {
        clip-path: url(#clippath-1);
      }

      .cls-4 {
        clip-path: url(#clippath);
      }
    </style>
    <clipPath id="clippath">
      <path class="cls-2" d="M948.7,310.5c-24.5-58-59.6-110.1-104.3-154.8-44.7-44.7-96.8-79.8-154.8-104.3-60-25.4-123.8-38.3-189.6-38.3s-129.5,12.9-189.5,38.3c-58,24.5-110.1,59.6-154.8,104.3-44.7,44.7-79.8,96.8-104.3,154.8-25.4,60-38.3,123.8-38.3,189.5s12.9,129.5,38.3,189.5c24.5,58,59.6,110.1,104.3,154.8,44.7,44.7,96.8,79.8,154.8,104.3,60,25.4,123.8,38.3,189.5,38.3s129.5-12.9,189.6-38.3c58-24.5,110.1-59.6,154.8-104.3,44.7-44.7,79.8-96.8,104.3-154.8,25.4-60,38.3-123.8,38.3-189.5s-12.9-129.5-38.3-189.5ZM870.5,267.9l-180,217.7c-5,6-14.7,2.5-14.7-5.3V106.1c0-6.1,6.3-10.1,11.8-7.5,74.9,35.2,138.4,90.7,183.4,159.4,2,3.1,1.8,7.1-.5,9.9ZM56.9,500c0-244.3,198.8-443.1,443.1-443.1s22.9.4,34.1,1.3,7.7,3.9,7.7,8.3v247.1c0,4.6-3.7,8.3-8.3,8.3H168.1c-4.6,0-8.3,3.7-8.3,8.3v429.5c0,8-10.2,11.4-15,5-55.2-73.9-87.9-165.5-87.9-264.7ZM292.8,886.6v-201.9c0-4.6,3.7-8.3,8.3-8.3h156.9c4.6,0,8.3-3.7,8.3-8.3v-122.2c0-4.6-3.7-8.3-8.3-8.3h-156.9c-4.6,0-8.3-3.7-8.3-8.3v-60.1c0-4.6,3.7-8.3,8.3-8.3h232.4c4.6,0,8.3,3.7,8.3,8.3v464.3c0,4.3-3.4,8-7.7,8.3-11.3.9-22.6,1.3-34.1,1.3-73,0-142-17.8-202.7-49.2s-4.5-4.3-4.5-7.4ZM675.8,893.9v-202.4c0-1.9.7-3.8,1.9-5.2l37.8-46.4c3.5-4.3,10.2-4,13.3.6l99.9,147c2.2,3.2,1.8,7.4-.7,10.3-39.2,43.2-86.9,78.6-140.3,103.7-5.5,2.6-11.8-1.4-11.8-7.5ZM893.4,674.5l-90.1-132.5c-2-3-1.9-6.9.3-9.8l111.9-142.4c4.3-5.4,12.9-3.6,14.6,3.1,8.5,34.3,13.1,70.2,13.1,107.1,0,61.4-12.6,119.9-35.2,173.1-2.6,6-10.8,6.8-14.5,1.4Z"/>
    </clipPath>
    <clipPath id="clippath-1">
      <rect class="cls-2" x="8.1" y="8.1" width="983.9" height="983.9"/>
    </clipPath>
  </defs>
  <!-- Generator: Adobe Illustrator 28.6.0, SVG Export Plug-In . SVG Version: 1.2.0 Build 709)  -->
  <g>
    <g id="Ebene_1">
      <circle class="cls-1" cx="500" cy="500" r="452.2"/>
      <g class="cls-4">
        <g class="cls-3">
          <image width="2051" height="2051" transform="translate(7.6 7.6) scale(.5)" xlink:href="FAVICON-PORTFOLIO-1.png"/>
        </g>
      </g>
    </g>
  </g>
</svg>