<?xml version="1.0" encoding="UTF-8"?>
<svg xmlns="http://www.w3.org/2000/svg" version="1.1" xmlns:xlink="http://www.w3.org/1999/xlink" viewBox="0 0 100 100">
  <defs>
    <style>
      .cls-1 {
        clip-path: url(#clippath-4);
      }

      .cls-2, .cls-3 {
        fill: #fff;
      }

      .cls-4 {
        mask: url(#mask);
      }

      .cls-3 {
        fill-rule: evenodd;
      }

      .cls-5 {
        fill: none;
      }

      .cls-6 {
        clip-path: url(#clippath-1);
      }

      .cls-7 {
        clip-path: url(#clippath-3);
      }

      .cls-8 {
        clip-path: url(#clippath-2);
      }

      .cls-9 {
        clip-path: url(#clippath);
      }
    </style>
    <clipPath id="clippath">
      <rect class="cls-5" x="-208.8" y="279.3" width="60" height="52"/>
    </clipPath>
    <clipPath id="clippath-1">
      <rect class="cls-5" x="-208.8" y="147.7" width="60" height="59.9"/>
    </clipPath>
    <clipPath id="clippath-2">
      <rect class="cls-5" x="-208.8" y="20" width="60" height="60"/>
    </clipPath>
    <clipPath id="clippath-3">
      <rect class="cls-5" x="20" y="20" width="60" height="60"/>
    </clipPath>
    <clipPath id="clippath-4">
      <rect class="cls-5" x="20" y="-102" width="60" height="48.8"/>
    </clipPath>
    <mask id="mask" x="21.8" y="-1258.2" width="60" height="60" maskUnits="userSpaceOnUse">
      <g id="mask0_101571_3803">
        <path class="cls-2" d="M81.8-1258.2H21.8v60h60v-60Z"/>
      </g>
    </mask>
  </defs>
  <!-- Generator: Adobe Illustrator 28.6.0, SVG Export Plug-In . SVG Version: 1.2.0 Build 709)  -->
  <g>
    <g id="VUE-JS">
      <g class="cls-9">
        <g>
          <path class="cls-2" d="M-148.8,279.3l-30,52-30-52h12l18,31.2,18-31.2h12Z"/>
          <path class="cls-2" d="M-163.4,279.3l-15.3,26.6-15.4-26.6h8.4l6.9,12,6.9-12h8.4Z"/>
        </g>
      </g>
    </g>
    <g id="CONTINUALLY-LEARNING">
      <g class="cls-6">
        <g>
          <path class="cls-2" d="M-158.9,172.9l-19.2,10.9c-.3.2-.8.2-1.1,0l-19.2-10.9c-.8-.4-.8-1.5,0-2l19.2-10.9c.3-.2.8-.2,1.1,0l19.2,10.9c.8.4.8,1.5,0,2Z"/>
          <path class="cls-2" d="M-162.3,176.6v9c0,.4-.2.8-.6,1l-15.3,8.7c-.3.2-.8.2-1.1,0l-15.3-8.7c-.4-.2-.6-.6-.6-1v-9l8.5,4.8,7.4,4.2c.3.2.8.2,1.1,0l7.4-4.2,8.5-4.8Z"/>
          <path class="cls-2" d="M-153.3,161.7l.5-.4c.6-.4.6-1.4-.1-1.7l-4.2-2c-.7-.3-1.5.2-1.5,1l.4,4.6c0,.8,1,1.2,1.6.7l.8-.5c6.7,10.8,4.9,25.1-4.5,33.9-9.2,8.6-23.4,9.7-33.7,2.5-.7-.5-1.6-.3-2.1.4-.5.7-.3,1.6.4,2.1,5.1,3.5,11.1,5.3,17,5.3s14.8-2.7,20.6-8.1c10.4-9.8,12.5-25.9,4.9-37.9Z"/>
          <path class="cls-2" d="M-161.7,153c-11.5-8-27.3-6.8-37.6,2.8-10.7,10-12.6,26-4.6,38.3l-.7.5c-.6.4-.6,1.4.1,1.7l4.2,2c.7.3,1.5-.2,1.5-1l-.4-4.6c0-.8-1-1.2-1.6-.7l-.5.4c-7.1-11-5.4-25.3,4.2-34.3,9.2-8.6,23.4-9.7,33.7-2.5.7.5,1.6.3,2.1-.4.5-.7.3-1.6-.4-2.1Z"/>
        </g>
      </g>
    </g>
    <g id="MATERIAL-DESIGN">
      <g class="cls-8">
        <g>
          <path class="cls-2" d="M-200.9,29.8v40.5c-4.9-5.4-7.9-12.5-7.9-20.3s3-14.9,7.9-20.2Z"/>
          <path class="cls-2" d="M-197.7,34.2l17.3,34.7h-17.3v-34.7Z"/>
          <path class="cls-2" d="M-178.8,65l-17-33.9h34l-17,33.9Z"/>
          <path class="cls-2" d="M-178.8,20c7.8,0,14.9,3,20.2,7.9h-40.4c5.3-4.9,12.4-7.9,20.2-7.9Z"/>
          <path class="cls-2" d="M-159.9,68.9h-17.3l17.3-34.7v34.7Z"/>
          <path class="cls-2" d="M-158.6,72.1c-5.3,4.9-12.4,7.9-20.2,7.9s-14.9-3-20.2-7.9h40.4Z"/>
          <path class="cls-2" d="M-156.7,70.2V29.8c4.9,5.3,7.9,12.4,7.9,20.2s-3,14.9-7.9,20.2Z"/>
          <path class="cls-2" d="M-197.7,34.2l17.3,34.7h-17.3v-34.7Z"/>
          <path class="cls-2" d="M-178.8,65l-17-33.9h34l-17,33.9Z"/>
          <path class="cls-2" d="M-177.2,68.9l17.3-34.7v34.7h-17.3Z"/>
          <path class="cls-2" d="M-195.8,31.1h34l-17,33.9-17-33.9Z"/>
        </g>
      </g>
    </g>
    <g id="ANGLUAR">
      <path class="cls-2" d="M-178.8-107.7l27.9,10-4.3,36.9-23.6,13.1-23.6-13.1-4.3-36.9,27.9-10ZM-178.8-101l-17.4,39.1h6.5l3.5-8.8h14.8l3.5,8.8h6.5l-17.4-39.1ZM-173.7-76h-10.2l5.1-12.3,5.1,12.3Z"/>
    </g>
    <g id="JAVASCRIPT">
      <path class="cls-2" d="M-208.8-235.3h60v60h-60v-60ZM-155.1-203.6c-1.2-2.2-2.9-3.7-5.3-4.2-1.7-.4-3.4-.4-5.1,0-5.5,1.1-7.9,7.8-4.3,12.2,1.3,1.5,2.9,2.5,4.7,3.3,1.5.7,3.1,1.4,4.7,2.2,1.1.5,1.5,1.5,1.4,2.7-.1,1.2-.9,1.8-1.9,2.2-2.3.8-4.9,0-6.4-1.8-.3-.4-.6-.9-1-1.3-1.5.9-3,1.7-4.5,2.6.9,1.8,2.2,3.3,4,4.3,3,1.7,6.2,1.9,9.5,1.1,2.1-.5,4-1.6,5.1-3.6,2.1-3.8.9-8.5-2.8-10.8-1.7-1-3.5-1.7-5.3-2.6-.9-.4-1.7-.9-2.5-1.4-1.3-1.1-1.1-3.2.4-4,1.4-.8,3.4-.3,4.5,1.1.2.3.4.6.6.9,1.4-.9,2.8-1.9,4.3-2.8ZM-193-185.2c.8,1.7,2,3.1,3.6,4,2.1,1.2,4.5,1.4,6.9,1,2.1-.3,3.9-1.3,5.1-3.2,1-1.6,1.3-3.4,1.3-5.3v-19h-5.6v18.9c0,.6,0,1.2-.1,1.7-.2.9-.6,1.6-1.6,1.9-1.7.5-3.2,0-4.2-1.5-.2-.4-.5-.8-.8-1.2-1.6.9-3.1,1.8-4.6,2.8Z"/>
    </g>
    <g id="FIREBASE">
      <path class="cls-2" d="M-199.1-323.8l5.9-38c.2-1.3,1.9-1.6,2.6-.4l6.4,11.9-14.9,26.5ZM-156.9-314.6l-5.7-35c-.2-1.1-1.5-1.5-2.3-.7l-35.7,35.8,19.7,11.1c1.2.7,2.8.7,4,0l19.9-11.1ZM-173-345.1l-4.6-8.7c-.5-1-1.9-1-2.4,0l-20.1,35.8,27.1-27.1Z"/>
    </g>
    <g id="TYPESCRIPT">
      <path class="cls-2" d="M-148.8-485.9c-.4-2.3-2.2-4.2-4.5-4.6-.1,0-.2,0-.4,0,0,0,0,0,0,0h-50.1s0,0-.1,0c-2.3.4-4.2,2.2-4.7,4.5,0,0,0,.2-.1.3v50.2c0,0,0,0,0,.1.5,2.5,2.1,4.1,4.6,4.7,0,0,.1,0,.2.1h50.3c0,0,0,0,.1-.1,2.5-.6,4-2.1,4.6-4.6,0,0,0-.2,0-.3,0,0,0,0,0,0v-50.1c0,0,0,0,0-.2ZM-173.9-457.4h-7.5s0,0,0,0v21.4h-6v-21.4h-7.5v-4.8h20.9v4.8h0ZM-153.8-443.1c0,.9-.2,1.8-.6,2.7-.1.3-.2.5-.3.8-.5,1-1.3,1.8-2.3,2.4-1.1.7-2.3,1.1-3.5,1.3-1.4.3-2.8.4-4.2.3-.7,0-1.4,0-2-.1-1.6-.2-3.2-.5-4.7-1.3,0,0-.2-.2-.2-.2v-5.3h0c.4.2.9.5,1.3.7,1.1.6,2.2,1.1,3.4,1.3,1,.2,2.1.3,3.1.2.8,0,1.6-.2,2.3-.6.6-.3,1.1-.8,1.3-1.5.1-.7,0-1.3-.3-1.9-.5-.8-1.3-1.3-2.2-1.8-1-.5-1.9-.9-2.9-1.3-1.4-.7-2.9-1.4-4-2.5-1-.9-1.7-2-2-3.2-.2-.8-.2-1.5-.2-2.3,0-1.9.7-3.5,2-4.8,1.1-1.1,2.4-1.7,3.9-2.1,1-.2,2-.4,3.1-.5.7,0,1.5,0,2.2,0,1.1,0,2.2,0,3.3.4.7.2,1.4.4,2.2.5.1,0,.2.1.2.3v5.1c0,0,0,.1,0,.2-.2-.1-.4-.2-.6-.4-.9-.5-1.8-.8-2.8-1.1-1.1-.2-2.1-.4-3.2-.4-.7,0-1.5.1-2.2.4-.8.3-1.5.8-1.8,1.7-.2.7,0,1.3.4,1.9.5.7,1.3,1.2,2.1,1.6,1.1.5,2.2,1,3.2,1.4,1.2.6,2.4,1.1,3.4,2,.9.7,1.7,1.6,2.1,2.6.2.7.5,1.3.5,2.1.1.4.2.9.1,1.3Z"/>
    </g>
    <g id="SCRUM">
      <g id="JAVASCRIPT-2" data-name="JAVASCRIPT">
        <g>
          <path class="cls-3" d="M-148.8-566.4l-8.7-6.2v3.2h-10.4c-.2.3-.5.6-.8.9-.2.2-.5.5-.7.7-.2.2-.4.4-.6.6-1.6,1.5-3.5,2.7-5.5,3.7-.1,0-.3.1-.4.2h18.3v3.2l8.7-6.2Z"/>
          <path class="cls-3" d="M-170.2-568.8c.2-.2.4-.4.6-.7,1.6-1.7,2.9-3.7,3.8-5.9,1.1-2.5,1.6-5.2,1.6-8s-.5-5.5-1.6-8c-1-2.4-2.5-4.6-4.4-6.5-1.9-1.9-4.1-3.4-6.5-4.4-.5-.2-1.1-.4-1.6-.6-1.5-.5-3.1-.8-4.7-.9-.5,0-1.1,0-1.7,0-2.8,0-5.5.5-8,1.6-2.4,1-4.6,2.5-6.5,4.4s-3.4,4.1-4.4,6.5c-1.1,2.5-1.6,5.2-1.6,8h-3.5l6.2,8.7,6.2-8.7h-3.5c0-8.3,6.7-15,15-15,8.3,0,15,6.7,15,15v.2c-.1,7.6-6.3,13.7-13.9,13.7h-25.1v6h27c1.7,0,3.4-.3,4.9-1,0,0,0,0,0,0,.3-.1.5-.2.8-.4,1.9-.9,3.6-2.1,5.1-3.5.2-.2.4-.4.6-.6Z"/>
          <path class="cls-3" d="M-168.1-611.6c5.6,0,10.1,4.4,10.4,9.9h-2.9l5.3,7.4,5.3-7.4h-2.9c0-1.9-.4-3.7-1.2-5.5-.8-1.8-1.9-3.4-3.3-4.8s-3-2.5-4.8-3.2c-1.9-.8-3.9-1.2-5.9-1.2s-4,.4-5.9,1.2c-1.8.8-3.4,1.9-4.8,3.2-1.4,1.4-2.5,3-3.2,4.8-.3.7-.5,1.4-.7,2,1.6.1,3.2.5,4.7.9,1.3-4.3,5.3-7.5,10-7.5Z"/>
        </g>
      </g>
    </g>
    <g id="WORDPRESS">
      <g>
        <path class="cls-2" d="M-178.3-713.8l-7.5,21.8c2.2.7,4.6,1,7.1,1s5.7-.5,8.3-1.4c0-.1-.1-.2-.2-.3l-7.7-21.1Z"/>
        <path class="cls-2" d="M-161.9-717.2c0-3.1-1.1-5.2-2.1-6.9-1.3-2.1-2.5-3.8-2.5-5.9s1.7-4.4,4.2-4.4.2,0,.3,0c-4.4-4.1-10.4-6.6-16.9-6.6s-16.4,4.5-20.9,11.3c.6,0,1.1,0,1.6,0,2.6,0,6.7-.3,6.7-.3,1.3,0,1.5,1.9.2,2.1,0,0-1.4.2-2.9.2l9.1,27.1,5.5-16.4-3.9-10.7c-1.3,0-2.6-.2-2.6-.2-1.4,0-1.2-2.1.2-2.1,0,0,4.1.3,6.6.3s6.7-.3,6.7-.3c1.3,0,1.5,1.9.2,2.1,0,0-1.4.2-2.9.2l9,26.9,2.6-8.2c1.1-3.6,1.8-6.1,1.8-8.2Z"/>
        <path class="cls-2" d="M-203.8-716c0,9.9,5.8,18.5,14.1,22.5l-11.9-32.7c-1.4,3.1-2.2,6.6-2.2,10.2Z"/>
        <path class="cls-2" d="M-156.7-725.4c0,2.5-.5,5.4-1.9,9l-7.6,22.1c7.4-4.3,12.4-12.4,12.4-21.6s-1.1-8.4-3.1-12c.1.8.2,1.6.2,2.6Z"/>
        <path class="cls-2" d="M-178.8-746c-16.6,0-30,13.4-30,30s13.4,30,30,30,30-13.4,30-30c0-16.6-13.4-30-30-30ZM-155.4-700.2c-1,1.5-2.2,2.9-3.4,4.2-1.3,1.3-2.7,2.4-4.2,3.4-1.5,1-3.1,1.9-4.8,2.6-3.5,1.5-7.2,2.2-11,2.2s-7.5-.7-11-2.2c-1.7-.7-3.3-1.6-4.8-2.6-1.5-1-2.9-2.2-4.2-3.4s-2.4-2.7-3.4-4.2c-1-1.5-1.9-3.1-2.6-4.8-1.5-3.5-2.2-7.2-2.2-11s.7-7.5,2.2-11c.7-1.7,1.6-3.3,2.6-4.8,1-1.5,2.2-2.9,3.4-4.2,1.3-1.3,2.7-2.4,4.2-3.4,1.5-1,3.1-1.9,4.8-2.6,3.5-1.5,7.2-2.2,11-2.2s7.5.7,11,2.2c1.7.7,3.3,1.6,4.8,2.6,1.5,1,2.9,2.2,4.2,3.4,1.3,1.3,2.4,2.7,3.4,4.2,1,1.5,1.9,3.1,2.6,4.8,1.5,3.5,2.2,7.2,2.2,11s-.7,7.5-2.2,11c-.7,1.7-1.6,3.3-2.6,4.8Z"/>
      </g>
    </g>
    <g id="HTML5">
      <path class="cls-2" d="M-205.8-873.6l4.9,54,22.1,6,22.1-6,4.9-54h-54ZM-162.4-855.9h-25.9l.6,6.8h24.7l-1.9,20.3-13.9,3.8-13.9-3.8-1-10.6h6.8l.5,5.5,7.6,2,7.6-2,.8-8.6h-23.5l-1.9-20h34l-.7,6.6Z"/>
    </g>
    <g id="CSS">
      <path class="cls-2" d="M-205.3-1001.3h0c0,.2,0,.4,0,.6.4,4.4.8,8.8,1.2,13.2.5,6.2,1.1,12.5,1.6,18.7.6,7,1.3,14,1.9,21,0,.5.2.7.7.9,6.8,1.9,13.5,3.7,20.3,5.6.5.1,1,.1,1.5,0,6.8-1.9,13.6-3.8,20.4-5.6.5-.1.7-.4.7-.9.2-2.6.5-5.3.7-7.9.4-4.4.8-8.8,1.2-13.1.5-5.1.9-10.3,1.4-15.4.3-3.8.7-7.6,1-11.5.2-1.8.3-3.6.4-5.4h-53ZM-162.5-986c-.3,3.9-.7,7.7-1,11.6-.4,4.5-.8,8.9-1.2,13.3-.1,1.3-.3,2.6-.3,3.8,0,.7-.3.9-.9,1-4.1,1.1-8.2,2.2-12.2,3.4-.2,0-.3.1-.5.2,0,0-.1,0-.2,0-4.4-1.2-8.7-2.4-13.1-3.6-.2,0-.4-.3-.4-.5-.3-3.3-.6-6.6-.9-10h6.7c.1,1.3.2,2.7.3,4,0,1.2,0,1.2,1.3,1.6,2.1.6,4.2,1.1,6.3,1.7h0c2.3-.7,4.6-1.3,6.9-1.9.2,0,.5-.4.5-.6.1-1,.2-2,.3-3.1.1-1.6.3-3.3.4-5h-8.1,0c0,0-.1,0-.2,0h-14.7c-.2-2.2-.4-4.4-.6-6.6h15.5,0s8.7,0,8.7,0c.2-2.3.4-4.5.6-6.8h-9.3,0c0,0-.1,0-.2,0-5.2,0-10.4,0-15.6,0,0,0-.1,0-.3,0-.2-2.2-.4-4.3-.6-6.5h16.7,0s16.6,0,16.6,0c-.1,1.5-.2,2.9-.4,4.3Z"/>
    </g>
    <g id="GIT">
      <path class="cls-2" d="M-149.9-1101.6l-26.2-26.2c-1.5-1.5-4-1.5-5.5,0l-5.4,5.4,6.9,6.9c1.6-.5,3.5-.2,4.7,1.1,1.3,1.3,1.6,3.1,1.1,4.8l6.7,6.7c1.6-.5,3.5-.2,4.8,1.1,1.8,1.8,1.8,4.7,0,6.5-1.8,1.8-4.7,1.8-6.5,0-1.4-1.4-1.7-3.3-1-5l-6.2-6.2v16.3c.5.2.8.5,1.2.8,1.8,1.8,1.8,4.7,0,6.5-1.8,1.8-4.7,1.8-6.5,0-1.8-1.8-1.8-4.7,0-6.5.5-.5,1-.8,1.5-1v-16.5c-.5-.2-1-.6-1.5-1-1.4-1.4-1.7-3.3-1-5l-6.9-6.8-17.9,17.9c-1.5,1.5-1.5,4,0,5.5l26.2,26.2c1.5,1.5,4,1.5,5.5,0l26-26c1.6-1.6,1.6-4,0-5.5Z"/>
    </g>
    <g id="API">
      <g>
        <path class="cls-2" d="M-153.5-1220.4c.5-2,.8-4.1.8-6.2s-.4-4.2-.8-6.3c.3-.2.6-.4.8-.6.5-.4.9-1,1.5-1.3.2,0,.3-.3.3-.5.3-.7.7-1.3.3-2.1,0-.6-.5-.9-.7-1.4-.4-1-1.1-1.8-1.6-2.8-.5-1-1.2-2-1.7-3-.4-.8-.9-1.4-1.8-1.7-.5-.2-1-.2-1.4,0-1,.3-2,.7-3,1-3.1-2.9-6.7-5-10.7-6.2-.2-1-.3-2.1-.6-3.1-.1-.5-.4-1.1-1-1.4-.6-.3-1.2-.6-1.9-.6-2.5,0-5.1,0-7.6,0-.4,0-.8.1-1.1.2-1,.3-1.6,1-1.8,2,0,.4,0,.9-.2,1.3-.2.5-.2,1-.4,1.5-4.1,1.2-7.6,3.3-10.8,6.2,0,0-.2-.2-.3-.2-.9-.2-1.7-.5-2.6-.8-1-.3-2.2.1-2.8,1-.3.5-.5,1-.8,1.4-.6.8-1,1.8-1.6,2.6-.6,1.1-1.3,2.2-1.9,3.3-.2.4-.3.8-.4,1.3,0,.8.3,1.6,1,2.2.7.6,1.3,1.2,2,1.9-.4,2-.8,4.1-.8,6.2s.4,4.2.8,6.3c-.3.2-.6.4-.8.6-.5.4-.9,1-1.5,1.3-.2,0-.3.3-.3.5-.3.7-.7,1.3-.3,2.1,0,.6.5.9.7,1.4.4,1,1.1,1.8,1.6,2.8.5,1,1.2,2,1.7,3,.4.8.9,1.4,1.8,1.7.5.2,1,.2,1.4,0,1-.3,2-.7,3-1,3.1,2.9,6.7,5,10.7,6.2.2,1,.4,2,.6,3.1.1.5.4,1.1.9,1.4.6.3,1.2.6,1.9.6,2.5,0,5.1,0,7.6,0,.4,0,.8-.1,1.1-.2.9-.3,1.6-.9,1.8-1.9.2-1,.4-2,.6-3,4.1-1.2,7.7-3.3,10.8-6.2,0,0,.2.2.3.2.9.1,1.7.5,2.5.8.6.2,1.1.2,1.6,0,.5-.3,1.1-.3,1.3-1,.9-1.2,1.6-2.7,2.4-4,.6-1.1,1.2-2.1,1.9-3.2.2-.4.3-.8.4-1.3,0-.8-.3-1.6-1-2.2-.7-.6-1.3-1.2-2-1.9ZM-184.1-1218.4c0,.4-.4.6-.8.8-.3,0-.6,0-.8,0-.8-.3-1-.8-.9-1.4,0-.2,0-.4-.1-.6-.2-.5-.3-1.1-.4-1.7h-5.3c-.5,1.1-.7,1.8-.6,2.8-.2.3-.5.6-.7.9h-1.1c-.2-.2-.4-.4-.7-.7,0,0,0-.1,0-.3-.3-.4-.2-.8,0-1.2.5-1.6.8-3.2,1.5-4.8,0-.8.4-1.5.6-2.3.2-.8.4-1.5.6-2.3.5-1.4.8-3,1.4-4.4,0-.6.3-1,.4-1.6.2-.2.4-.4.7-.6.4,0,.9-.1,1.4.2,0,0,0,0,0,0,.4.6.5,1.3.7,1.9.4,1.2.7,2.4,1.1,3.6.5,1.4.8,2.9,1.4,4.4,0,.7.4,1.4.6,2,.3,1,.7,2.1,1,3.1.1.6,0,1.3,0,1.9ZM-171-1227.8c0,.9-.3,1.7-1,2.4-.3.3-.5.5-.8.7-.6.4-1.2.6-2,.6-1.3,0-2.6,0-3.9,0v5.6c-.2.3-.3.4-.5.6-.4.4-1,.3-1.4.3-.2-.2-.4-.4-.7-.6v-16.8c.2-.2.4-.4.6-.6h6.1c.9,0,1.7.4,2.3,1,.6.5,1,1.1,1.2,1.9,0,.2.1.5.1.7v4.4ZM-163.2-1219.3h0v1.1c-.2.2-.4.4-.6.6h-3.8l-.6-.6v-1.1c0-.4.5-.5.8-.7,0,0,.3,0,.5,0v-12.9c-.3-.2-.6-.3-1.1-.6,0-.4-.1-.9-.2-1.3.3-.3.5-.5.8-.7h3.7c.2.2.4.4.6.7,0,.3,0,.8-.1,1.3-.4.2-.7.4-1.1.6v12.8c.5,0,1,.4,1.2.9Z"/>
        <path class="cls-2" d="M-189-1227.4c-.1-.7-.6-1.4-.6-2.2,0,0-.2-.2-.3-.3-.4,1-.4,2.1-1,3,0,1-.7,1.9-.7,3.1.1,0,.2-.2.2-.2,1.1,0,2.2,0,3.3,0,0-.6-.4-1.1-.5-1.8,0-.5-.4-1-.5-1.5Z"/>
        <path class="cls-2" d="M-174.7-1233.1c-1.3,0-2.7,0-4,0v6.5c1.3,0,2.6,0,3.8,0,.4,0,.7-.1,1-.4.1-.2.3-.4.4-.6v-4.1c0-.7-.6-1.3-1.2-1.4Z"/>
      </g>
    </g>
    <g id="RXJS">
      <g class="cls-7">
        <g>
          <path class="cls-2" d="M72.9,39.6c0-2.4-1.5-4.8-3.2-6.7-.1-.1-.2-.3-.4-.4-.5-.5-1-1-1.4-1.5-1.5-1.4-2.8-2.4-2.8-2.4-8.7-6.5-16.8-6.5-21.8-5.4-.1,0-.3,0-.4,0-.2,0-.4,0-.6.1,0,0-.1,0-.2,0,0,0-.1,0-.2,0-.6.1-1.1.3-1.5.5,0,0-.2,0-.3,0,0,0-.1,0-.2,0,0,0-.2,0-.2,0,0,0,0,0-.1,0,0,0,0,0,0,0,0,0-.1,0-.2,0,0,0-.1,0-.2,0,0,0,0,0-.1,0,0,0,0,0-.1,0-.1,0-.2,0-.3.1-.2,0-.3.1-.4.2,0,0,0,0,0,0,0,0,0,0,0,0,0,0,0,0,0,0,0,0,0,0,0,0-11,5-14.3,15.8-14.3,15.8-.5,1.7-1,3.4-1.3,5.1,0,.2,0,.4,0,.5-.6,4-.2,7.9.9,11.7.2.7.5,1.5.8,2.2,0-.2,0-.4,0-.4,0,0-1-4.8,0-9.5,0,0,.8-4.8,4.1-8.6,0,0,5.3-7.7,15.2-4.7,0,0,2.1.8,2.9,1.2.7.4,2,.9,2,.9,7,3.4,12.9,4.5,12.9,4.5,12.5,2.1,11.8-4.1,11.8-4.1ZM49.6,30.2l-8.7-2.7s-.3-.1-.7,0c0,0-4.8,1.2-3.9,3.9,0,0,.5,1.7,1.8,3.3l9.6-.4v.2c-.2.2-.4.4-.7.4l-8.9.4s0,0,0,0c-.2,0-.4,0-.5-.2-1.4-1.7-2-3.4-2-3.5-.2-.7-.1-1.4.2-2.1,1-1.8,3.9-2.6,4.2-2.7.2,0,.4,0,.5,0s.4,0,.5,0c0,0,0,0,0,0l8.1,2.5c.2,0,.3.2.4.4,0,.1,0,.3,0,.5ZM58.3,33.6c0,.7-.6,1.3-1.3,1.3h0c-.7,0-1.3-.6-1.3-1.3h0c0-.7.6-1.3,1.3-1.3h0c.7,0,1.3.6,1.3,1.3h0Z"/>
          <path class="cls-2" d="M22.4,56.9c-.6-.7-1.1-1.4-1.6-2.2-.4-.6-.7-1.3-.9-2.1-.1-.7.2-1.5.6-2.1.3-.5.7-.8.9-1.4,0,0,0-.2,0-.2-.1,2.7.2,5.3.9,7.9Z"/>
          <path class="cls-2" d="M23.5,58s0,0,0,0c-1.2-3.7-1.5-7.6-.9-11.7-.6,4-.2,7.9,1,11.7Z"/>
          <path class="cls-2" d="M38.7,24.6c0,0,.2,0,.3-.1-.1,0-.2,0-.3.1Z"/>
          <path class="cls-2" d="M47,22c-5.3.3-8.8,2-9.1,2.2-5.8,2.6-9.5,6.9-11.6,10-2.2,3.4-3.1,6.1-3.1,6.2-.5,1.6-1,3.4-1.3,5.2,0,.6-.2,1.2-.2,1.7-.2-2.5-2.3-5-1-7.5.5-.8,1.1-1.6,1.9-2.2,1.8-1.4,2.6-2.1,2.7-4.7,0-.9,0-1.8.1-2.6,0-1.1.5-2.1,1.3-2.8.8-.6,1.8-1,2.8-1.2,1-.2,1.9,0,2.9-.5,1.1-.4,2-1.1,2.8-2,.7-.8,1.3-1.6,2-2.4,2.4-2.6,6.5-2,9.2-.1.2.1.4.3.6.5Z"/>
          <path class="cls-2" d="M21.7,47.5c0,.5,0,1.1-.1,1.6.1-.4.2-.9.1-1.3,0,0,0-.2,0-.3Z"/>
          <path class="cls-2" d="M79.3,61.9s-1.9,7.5-11.2,14c0,0-10.1,7.5-24.9,2.4,0,0-10-3.2-16.1-12.5-.3-.4-.6-.9-.8-1.3,0-.4-.2-.7-.4-1.1-1.7-3.9-2-8.7-1.2-12.9,0,0,0,0,0,0,0,0,.8-4.7,3.9-8.3,0,0,0,0,0,0,0,0,3.6-5.1,10.1-5.1s2.8.2,4.3.7c.6.2,2.2.8,2.8,1.1,0,0,0,0,0,0,.4.2.9.4,1.3.6-2.3.7-8,3-10.2,9-2.8,7.6,1.1,14.3,1.1,14.3,0,0,2.6,5.2,8.4,7.6,0,0-4.6-4.1-4.4-8.6h0c.2.3,1,1.2,1,1.2.9,1,2,2,3,2.9,5.7,4.8,12.5,7.2,19.9,5.5,0,0-5.6.4-9.3-3.9,0,0,8.9.4,17.1-8.6-.2.2-4.4,3.9-9.9,2.8,0,0,5.1-2.8,8.8-10.5,0,0,4.3-8.5,1.1-15.5,0,0,7.9,7.4,0,19.7,0,0,3-2.1,6.2-9.1,0,0,1.7,7.4-3.4,14.4,0,0-2.3,4.2-7.8,6.5,0,0,3.2.6,10.7-5.4Z"/>
        </g>
      </g>
    </g>
    <g id="CLOUD">
      <g class="cls-1">
        <g>
          <path class="cls-2" d="M63.6-97.5l-7.5,7.6c-2.2-1.2-4.7-1.7-7.2-1.6-2.4.2-4.7,1-6.6,2.5-1.8-.5-3.6-.8-5.4-.8h0c-3,0-5.8.7-8.5,2,1.1-2.6,2.7-5,4.7-7.1,2.8-2.9,6.2-5,10.1-6.2,3.8-1.2,7.9-1.3,11.8-.4,3.2.7,6.1,2.1,8.7,4Z"/>
          <path class="cls-2" d="M79.2-65.3c-1.1,3.5-3.2,6.6-6.2,8.7-2.9,2.2-6.5,3.3-10.1,3.3h-10.7v-10.5h10.7c.9,0,1.7-.2,2.5-.5.8-.3,1.5-.8,2.1-1.4.6-.6,1.1-1.3,1.4-2.1.3-.8.5-1.7.5-2.5s-.2-1.7-.5-2.5c-.3-.8-.8-1.5-1.4-2.1-.6-.6-1.3-1.1-2.1-1.4-.8-.3-1.6-.5-2.5-.5v-1.3c0-2-.4-4-1.2-5.8-.4-.8-.8-1.6-1.3-2.3-.6-.9-1.3-1.6-2.2-2.3,0,0,0,0-.1,0l7.2-7.3h.1c.7.5,1.4,1.2,2,1.9,2.4,2.7,4.1,6,5.1,9.5,3,2.1,5.3,5,6.5,8.5,1.2,3.5,1.3,7.2.2,10.7Z"/>
          <path class="cls-2" d="M50.4-80.8l-7.6,7.6c-.4-1-1.1-1.8-1.9-2.5-.8-.7-1.8-1.1-2.8-1.3-1-.2-2.1-.1-3.1.2-1,.3-1.9.9-2.7,1.6-.7.8-1.3,1.7-1.6,2.7-.3,1-.4,2.1-.2,3.1.2,1,.6,2,1.3,2.9,0,0,.1.2.2.2.6.7,1.4,1.3,2.3,1.7h0l-7.5,7.6h0c-.7-.5-1.3-1.1-1.9-1.7-1.8-1.9-3.2-4.3-3.9-6.8-1-3.4-1-7.1.2-10.4.7-2.1,1.7-3.9,3.1-5.6.9-1.1,1.9-2,3-2.8.2-.1.4-.3.6-.4h0c2.7-1.8,5.9-2.8,9.2-2.8,1.1,0,2.2.1,3.3.3h0c.9.2,1.8.4,2.6.7.5.2,1.1.4,1.6.7,2.3,1.2,4.4,2.9,6,5Z"/>
          <path class="cls-2" d="M49.9-63.9v10.5h-13c-2.9,0-5.8-.7-8.3-2.2l8.3-8.4h13Z"/>
        </g>
      </g>
    </g>
    <g id="DOCKER">
      <g>
        <path class="cls-2" d="M79.4-210.6c-.2-.1-1.7-1.3-4.9-1.3s-1.7,0-2.5.2c-.6-4.3-4.1-6.3-4.3-6.4l-.9-.5-.6.8c-.7,1.1-1.2,2.3-1.5,3.6-.6,2.4-.2,4.7,1,6.7-1.5.8-3.9,1-4.4,1.1H21.9c-1,0-1.9.8-1.9,1.9,0,3.5.5,6.9,1.7,10.2,1.4,3.6,3.4,6.2,6,7.8,3,1.8,7.8,2.8,13.2,2.8s4.9-.2,7.3-.7c3.4-.6,6.6-1.8,9.6-3.5,2.4-1.4,4.6-3.2,6.5-5.4,3.1-3.5,5-7.5,6.4-11h.6c3.4,0,5.5-1.4,6.7-2.5.8-.7,1.4-1.6,1.8-2.6l.3-.7-.6-.4h0Z"/>
        <path class="cls-2" d="M25.6-207.6h5.3c.3,0,.5-.2.5-.5v-4.8c0-.3-.2-.5-.5-.5h-5.3c-.2,0-.5.2-.5.5v4.8c0,.3.2.5.5.5ZM32.9-207.6h5.3c.3,0,.5-.2.5-.5v-4.8c0-.3-.2-.5-.5-.5h-5.3c-.3,0-.5.2-.5.5v4.8c0,.3.2.5.5.5ZM40.3-207.6h5.3c.3,0,.5-.2.5-.5v-4.8c0-.3-.2-.5-.5-.5h-5.3c-.3,0-.5.2-.5.5v4.8c0,.3.2.5.5.5ZM47.6-207.6h5.3c.3,0,.5-.2.5-.5v-4.8c0-.3-.2-.5-.5-.5h-5.3c-.2,0-.5.2-.5.5v4.8c0,.3.2.5.5.5ZM32.9-214.4h5.3c.3,0,.5-.2.5-.5v-4.8c0-.3-.2-.5-.5-.5h-5.3c-.3,0-.5.2-.5.5v4.8c0,.3.2.5.5.5ZM40.3-214.4h5.3c.3,0,.5-.2.5-.5v-4.8c0-.3-.2-.5-.5-.5h-5.3c-.3,0-.5.2-.5.5v4.8c0,.3.2.5.5.5ZM47.6-214.4h5.3c.3,0,.5-.2.5-.5v-4.8c0-.3-.2-.5-.5-.5h-5.3c-.2,0-.5.2-.5.5v4.8c0,.3.2.5.5.5ZM47.6-221.2h5.3c.3,0,.5-.2.5-.5v-4.8c0-.3-.2-.5-.5-.5h-5.3c-.2,0-.5.2-.5.5v4.8c0,.3.2.5.5.5ZM55-207.6h5.3c.3,0,.5-.2.5-.5v-4.8c0-.3-.2-.5-.5-.5h-5.3c-.3,0-.5.2-.5.5v4.8c0,.3.2.5.5.5Z"/>
      </g>
    </g>
    <g id="SQL">
      <g>
        <path class="cls-3" d="M31.9-353.6c-.8.7-.9,1.2-.9,1.5s.1.8.9,1.5c.8.7,2,1.5,3.8,2.2,3.5,1.4,8.6,2.3,14.3,2.3s10.7-.9,14.3-2.3c1.8-.7,3-1.5,3.8-2.2.8-.7.9-1.2.9-1.5s-.1-.8-.9-1.5c-.8-.7-2.1-1.5-3.8-2.2-3.5-1.4-8.6-2.3-14.3-2.3s-10.7.9-14.3,2.3c-1.8.7-3,1.5-3.8,2.2ZM33.9-360.3c4.2-1.7,9.9-2.7,16.1-2.7s11.8,1,16.1,2.7c2.1.8,4,1.9,5.4,3.2,1.4,1.3,2.5,3,2.5,5.1s-1.1,3.8-2.5,5.1c-1.4,1.3-3.3,2.3-5.4,3.2-4.2,1.7-9.9,2.7-16.1,2.7s-11.8-1-16.1-2.7c-2.1-.8-4-1.9-5.4-3.2-1.4-1.3-2.5-3-2.5-5.1s1.1-3.8,2.5-5.1c1.4-1.3,3.3-2.3,5.4-3.2Z"/>
        <path class="cls-3" d="M28.6-354.5c1.4,0,2.4,1.1,2.4,2.4v12.7c0,.3.1.8.9,1.5.8.7,2,1.5,3.8,2.2,3.5,1.4,8.6,2.3,14.3,2.3s10.7-.9,14.3-2.3c1.8-.7,3-1.5,3.8-2.2.8-.7.9-1.2.9-1.5v-12.7c0-1.4,1.1-2.4,2.4-2.4s2.4,1.1,2.4,2.4v12.7c0,2.1-1.1,3.8-2.5,5.1-1.4,1.3-3.3,2.3-5.4,3.2-4.2,1.7-9.9,2.7-16.1,2.7s-11.8-1-16.1-2.7c-2.1-.8-4-1.9-5.4-3.2-1.4-1.3-2.5-3-2.5-5.1v-12.7c0-1.4,1.1-2.4,2.4-2.4Z"/>
        <path class="cls-3" d="M28.6-341.8c1.4,0,2.4,1.1,2.4,2.4v12.7c0,.3.1.8.9,1.5.8.7,2,1.5,3.8,2.2,3.5,1.4,8.6,2.3,14.3,2.3s10.7-.9,14.3-2.3c1.8-.7,3-1.5,3.8-2.2.8-.7.9-1.2.9-1.5v-12.7c0-1.4,1.1-2.4,2.4-2.4s2.4,1.1,2.4,2.4v12.7c0,2.1-1.1,3.8-2.5,5.1-1.4,1.3-3.3,2.3-5.4,3.2-4.2,1.7-9.9,2.7-16.1,2.7s-11.8-1-16.1-2.7c-2.1-.8-4-1.9-5.4-3.2-1.4-1.3-2.5-3-2.5-5.1v-12.7c0-1.4,1.1-2.4,2.4-2.4Z"/>
        <path class="cls-3" d="M28.6-329.1c1.4,0,2.4,1.1,2.4,2.4v12.7c0,.3.1.8.9,1.5.8.7,2,1.5,3.8,2.2,3.5,1.4,8.6,2.3,14.3,2.3s10.7-.9,14.3-2.3c1.8-.7,3-1.5,3.8-2.2.8-.7.9-1.2.9-1.5v-12.7c0-1.4,1.1-2.4,2.4-2.4s2.4,1.1,2.4,2.4v12.7c0,2.1-1.1,3.8-2.5,5.1-1.4,1.3-3.3,2.3-5.4,3.2-4.2,1.7-9.9,2.7-16.1,2.7s-11.8-1-16.1-2.7c-2.1-.8-4-1.9-5.4-3.2-1.4-1.3-2.5-3-2.5-5.1v-12.7c0-1.4,1.1-2.4,2.4-2.4Z"/>
      </g>
    </g>
    <g id="HEROKU">
      <path class="cls-2" d="M71.6-490.6H28.4c-3,0-5.4,2.4-5.4,5.4v49.2c0,3,2.4,5.4,5.4,5.4h43.2c3,0,5.4-2.4,5.4-5.4v-49.2c0-3-2.4-5.4-5.4-5.4ZM36.5-439.6v-12l6.8,6-6.8,6ZM57.5-439.6v-17.9c0-1.4-.7-3.1-3.8-3.1-6.1,0-12.9,3.1-13,3.1l-4.2,1.9v-26h6v17c3-1,7.2-2,11.2-2s5.9,1.5,7.1,2.7c2.6,2.6,2.6,5.9,2.6,6.3v18h-6ZM59-471.9h-6c2.4-3.1,3.8-6.3,4.5-9.8h6c-.4,3.4-1.8,6.7-4.5,9.8Z"/>
    </g>
    <g id="POSTGRESQL">
      <path class="cls-3" d="M51.3-559.7c1.1.9,2.4,1.3,3.8,1.4.6,0,1.2,0,1.7-.1.9-.2,1.8-.4,2.6-.6,1.8-.5,3.3-1.5,4.4-2.9.6-.8,1.2-1.8,1.5-2.8.3-.8.5-1.7.8-2.5.2-.7.2-1.4.4-2.1,0-.5.1-.9.2-1.4,0-.7.1-1.5.2-2.2,0-.5,0-1,0-1.6,0-.2,0-.3,0-.5,0-.1,0-.2.2-.2.5,0,1.1,0,1.6,0,.6,0,1.2,0,1.8-.1.8-.1,1.6-.3,2.5-.5,1-.3,1.8-.7,2.7-1.2,1-.6,1.9-1.3,2.6-2.2.6-.8.9-1.7.8-2.7-.2-1.4-1.4-2.4-2.8-2.4-.5,0-1,0-1.5,0-.6,0-1.2.2-1.8.3-.4,0-.8,0-1.3.1h0c.8-1.5,1.6-3,2.3-4.5.6-1.2,1.1-2.4,1.6-3.5.8-2,1.5-4,2.1-6.1.5-2,1-4,1.1-6,0-.8,0-1.6,0-2.5,0-.7,0-1.3-.1-2,0-.7-.3-1.5-.6-2.1-.4-.9-1-1.6-1.7-2.3-.5-.6-1.1-1.1-1.7-1.6-.8-.7-1.8-1.3-2.8-1.8-1.1-.6-2.3-1-3.5-1.4-.7-.2-1.5-.4-2.2-.5-.3,0-.5-.2-.8-.2h-5c-.2,0-.4.1-.5.1-1.2.1-2.4.4-3.6.7-.4.1-.8,0-1.2,0-.3,0-.6-.1-.9-.1-1.2,0-2.4-.1-3.6-.1-1.2,0-2.3.2-3.4.5-.9.3-1.8.6-2.7,1.1-.4.2-.6.2-1,0-1.2-.4-2.5-.7-3.8-1-.8-.2-1.6-.3-2.4-.3-.8,0-1.5-.1-2.3-.1-.8,0-1.5,0-2.3,0-1.2.1-2.4.4-3.5.7-1.3.4-2.4,1.1-3.5,1.9-1.1.8-1.9,1.9-2.6,3-.7,1.2-1.2,2.6-1.5,4-.6,2.8-.6,5.8,0,8.6.1.8.3,1.7.4,2.5.2,1.2.5,2.3.7,3.5.2.8.4,1.7.6,2.5.4,1.3.7,2.6,1.1,3.8.4,1.2.8,2.3,1.2,3.5.6,1.6,1.3,3.2,2.1,4.6.7,1.3,1.6,2.5,2.7,3.5.7.7,1.6,1.2,2.5,1.4.7.2,1.5.2,2.3,0,.9-.2,1.7-.6,2.4-1.1,0,0,.2-.1.3,0,.4.5.8.8,1.4,1,1.4.7,2.9.9,4.4,1,.4,0,.7,0,1.1,0,.7,0,1.4-.2,2.1-.4.4-.1.7-.2,1.1-.4,0,.4,0,.8,0,1.1v2c0,.3,0,.6.1.9,0,.8.1,1.6.2,2.4,0,.6.1,1.1.3,1.6.3,1.1.6,2.1,1.1,3.2.4,1,1.1,1.9,1.9,2.5ZM49.1-569.9c0-1,0-1.9,0-2.9,0-1.2,0-2.4,0-3.6h0c-.6.3-1.2.7-1.8,1-.7.4-1.5.6-2.4.7-.6,0-1.3,0-1.9,0-1.1,0-2.1-.3-3.1-.8-.4-.2-.8-.5-1-.8-.6-.8-.3-1.8.6-2.3.7-.3,1.4-.5,2.1-.6.6-.1,1.2-.3,1.8-.5.6-.2,1-.7,1.4-1.2l.6-.8h-.7c-.7-.1-1.4-.3-2-.6-.6-.2-.6-.3-1,.2-.7.7-1.3,1.5-2,2.2-.5.5-1,1.1-1.5,1.7-.5.5-.9,1.1-1.4,1.6-.8.8-1.7,1.2-2.8,1.2-.7,0-1.4-.3-1.9-.7-1.2-.8-2-2-2.8-3.2-.9-1.6-1.7-3.3-2.3-5-.4-1.2-.9-2.4-1.2-3.6-.4-1.3-.8-2.7-1.1-4-.3-1-.5-2-.7-3-.3-1.2-.5-2.3-.7-3.5-.1-.8-.2-1.6-.4-2.4-.2-1.1-.2-2.1-.1-3.2,0-1,.2-1.9.3-2.9.2-1.3.6-2.6,1.3-3.8.4-.7.9-1.4,1.4-2,.9-1,2-1.7,3.2-2.3.9-.4,1.8-.6,2.7-.8,1.4-.3,2.7-.3,4.1-.2.6,0,1.2.1,1.8.2,1.3.1,2.6.4,3.8.7.9.2,1.8.6,2.7.8,0,0,.2,0,.3,0,1.2-.8,2.6-1.3,4-1.6.5-.1,1.1-.2,1.7-.2.7,0,1.4,0,2,0,.8,0,1.6.2,2.4.3.4,0,.8.2,1.2.2.2,0,.4-.1.6-.2,1-.2,2-.5,3-.7.8-.1,1.5-.2,2.3-.2.9,0,1.7,0,2.6,0,1.1,0,2.2.2,3.2.5,1.3.3,2.6.8,3.8,1.4.9.5,1.8,1,2.5,1.7.5.4,1,.9,1.5,1.3.6.6,1.1,1.2,1.5,1.9.3.6.5,1.2.5,1.8,0,.8.1,1.6.1,2.3,0,.7-.1,1.5-.2,2.2-.2,1.7-.5,3.4-1,5-.4,1.4-.8,2.7-1.3,4-.4,1.2-.9,2.4-1.4,3.6-.4.9-.8,1.8-1.2,2.6-.8,1.6-1.7,3.2-2.7,4.7-.2.3-.3.5-.5.8.4.3.9.4,1.4.4.5,0,.9,0,1.4,0,.8,0,1.5-.2,2.2-.3.7-.1,1.5-.3,2.2-.3.8,0,1.3.6,1.2,1.3,0,.4-.2.8-.5,1.2-1.4,1.6-3.2,2.5-5.2,3-.8.2-1.6.3-2.4.3-.7,0-1.3,0-2,0-.5,0-1-.1-1.5-.2,0,.5,0,.9-.2,1.4l-.2,1.8c0,.6-.1,1.2-.2,1.8,0,.6-.2,1.1-.2,1.7,0,.5-.1,1.1-.2,1.6-.1.8-.2,1.6-.4,2.4-.2,1-.5,1.9-1,2.7-.6,1.1-1.4,1.9-2.4,2.4-1.1.6-2.2.9-3.4,1.2-.8.2-1.7.2-2.6.1-1.5-.1-2.7-.8-3.7-1.9-.9-1.1-1.5-2.3-1.7-3.8-.1-.7-.2-1.4-.2-2,0-.8-.1-1.5-.1-2.3ZM50.8-579.6c0,.5,0,1,0,1.5,0,2.4,0,4.7,0,7.1,0,.4,0,.8,0,1.2,0,.8.1,1.6.2,2.4,0,.6.1,1.1.2,1.7.1.8.5,1.5.9,2.2.4.6.8,1.1,1.4,1.4,1,.6,2.2.6,3.3.4.8-.1,1.5-.4,2.2-.6.7-.2,1.4-.6,1.9-1.2.5-.5.9-1.1,1.1-1.8.5-1.3.6-2.7.8-4.1,0-.5.1-1,.2-1.5,0-.6.2-1.2.2-1.7,0-.4.1-.9.2-1.3,0-.6.2-1.2.2-1.9,0-.5.1-1,.2-1.5,0-.6.1-1.2.2-1.9,0-.5,0-.9.1-1.4.2-.8.6-1.6,1.3-2,.3-.2.7-.3,1-.5h0c-.3-.5-.7-.9-1-1.3-.5-.7-.9-1.4-1.2-2.1-.3-.7-.8-1.4-1.1-2.1-.6-1.2-1.3-2.4-1.8-3.7-.7-1.6-1.3-3.2-1.5-4.9,0-.7,0-1.5,0-2.2.2-1.2.8-2.1,1.8-2.7.9-.6,2-.8,3.1-.8.7,0,1.3,0,2,0h0c-.4-1-.8-1.9-1.3-2.8-.7-1.2-1.5-2.3-2.5-3.4-.7-.8-1.5-1.5-2.3-2.1-.8-.6-1.7-1.2-2.6-1.6-1.1-.5-2.2-1-3.4-1.2-1.1-.3-2.3-.4-3.5-.4-1,0-2,0-3,.3-1.5.3-2.8,1-4,1.9-.7.5-1.2,1.2-1.7,1.9-.6.8-1.1,1.7-1.5,2.6-.6,1.3-.9,2.6-1.2,3.9-.1.7-.2,1.3-.3,2,0,.2,0,.5,0,.7l.4-.2.4-.2c1.5-.7,3-1.1,4.6-1.1.7,0,1.4.2,2,.5,1.2.6,1.9,1.6,2.2,2.8.2.9.4,1.8.5,2.6.1.7.2,1.4.2,2.1,0,1,0,2,0,3.1,0,.9-.2,1.7-.5,2.5-.6,1.5-1.2,2.9-1.7,4.4-.2.5-.3,1-.5,1.5h.7c0,0,.2,0,.3,0,.7.2,1.2.5,1.7,1,.6.7,1,1.5,1,2.4ZM38.2-586.6c-.4-.9-.6-1.8-.7-2.8,0-.9,0-1.8.1-2.7,0-.9.2-1.7.2-2.6,0-1.4,0-2.9-.1-4.3,0-.9,0-1.7.1-2.6,0-.8.2-1.5.3-2.3.2-1.3.6-2.5,1-3.7.4-1.2.9-2.3,1.6-3.3.5-.7,1-1.3,1.6-2h-.2c-1.7-.6-3.5-1-5.3-1.2-.9,0-1.7-.1-2.6-.2-.3,0-.5,0-.8,0-.7,0-1.3,0-1.9.2-1.1.2-2.1.6-3.1,1.1-.9.5-1.6,1.2-2.2,2-.7.9-1.1,1.9-1.5,2.9-.4,1.2-.6,2.5-.6,3.8,0,1.1,0,2.3.1,3.4.1.8.2,1.7.4,2.5.2,1.1.5,2.3.7,3.4.4,1.6.8,3.2,1.2,4.8.4,1.5.9,3,1.5,4.5.4,1.2.9,2.4,1.5,3.6.3.8.8,1.5,1.2,2.2.5.8,1,1.5,1.7,2,.9.7,1.6.8,2.5,0,.4-.3.7-.7,1.1-1.1.5-.6,1.1-1.2,1.6-1.9.7-.8,1.4-1.6,2.1-2.3.1-.2.3-.3.4-.5l-.2-.2c-.9-.8-1.5-1.8-2-2.9ZM64.6-610c.6.7,1.1,1.4,1.6,2.1,1,1.4,1.8,2.9,2.3,4.5.3.7.5,1.4.4,2.2,0,.5,0,1.1-.1,1.6,0,.5-.1.9-.2,1.3,0,.7-.2,1.4-.3,2,0,.6,0,1.3,0,2,0,.7.1,1.3.2,2,0,.7.2,1.5.2,2.2,0,.6,0,1.2,0,1.8,0,.7-.2,1.5-.5,2.1-.2.5-.4,1-.7,1.4h0c0,0,.1.2.1.2v-.2c1.3-1.8,2.3-3.7,3.2-5.7.6-1.3,1.1-2.5,1.6-3.8.8-2,1.4-4.1,1.9-6.2.2-.9.4-1.9.5-2.9.1-.7.2-1.5.2-2.3,0-.8,0-1.6,0-2.4,0-.6-.2-1.2-.6-1.7-.6-.8-1.3-1.5-2.1-2.1-.7-.5-1.4-1-2.1-1.4-1.2-.7-2.4-1.1-3.7-1.4-1.3-.3-2.6-.4-3.9-.5-.8,0-1.5,0-2.3.1-.7,0-1.4.2-2.1.3.7.4,1.5.8,2.2,1.2,1.5.9,2.8,2,3.9,3.4ZM45.6-584.1c.5-1.5,1.1-3,1.7-4.4.5-1.2.8-2.4.9-3.7,0-.6,0-1.3,0-1.9,0-.7,0-1.4-.2-2.1-.1-.9-.3-1.8-.5-2.6-.2-.9-.8-1.6-1.8-1.8-.6-.1-1.2-.1-1.8,0-1.5.2-2.8.8-4.1,1.6-.3.2-.4.3-.3.7,0,.8.1,1.6.1,2.3,0,1.1,0,2.2,0,3.3,0,.4,0,.7-.1,1.1,0,.5-.2,1.1-.2,1.6,0,.6,0,1.1.2,1.7.4,1.7,1.4,3.1,2.9,4.1.9.6,1.9.9,3.1,1,0-.3.1-.5.2-.7ZM43.8-598.9c-.2-.4,0-.8.4-.9.1,0,.2,0,.3,0,.2,0,.3,0,.5,0,.6,0,1.1,0,1.6.5.3.2.4.6.2.9-.3.5-.7.7-1.2.7-.8,0-1.4-.3-1.8-1ZM67-599l.2-1.7c0-.2,0-.3-.3-.3-.6,0-1.2,0-1.8,0-.7,0-1.3,0-1.9.3-.7.3-1.2.7-1.4,1.5-.2.5-.2,1.1-.1,1.7,0,.9.3,1.7.6,2.5.4,1.1.8,2.2,1.4,3.2.7,1.4,1.5,2.8,2.2,4.2.2.4.4.8.6,1.2.4-.9.6-1.8.7-2.8,0-.8,0-1.6,0-2.4,0-.5,0-1-.1-1.5,0-.7-.2-1.3-.2-2,0-.7,0-1.4,0-2.1,0-.7.2-1.3.2-2ZM65.7-599.5c-.2.6-.7.9-1.3,1-.6,0-1.1-.1-1.4-.6-.3-.3-.2-.7.2-.9.5-.2.9-.3,1.5-.3.2,0,.4,0,.6.1.3,0,.5.3.3.7ZM48.2-581c-.3-.3-.7-.3-1.1,0-.4.4-.7.8-1,1.2-.4.5-.7,1-1.2,1.3-.7.5-1.6.7-2.4,1-.7.2-1.4.3-2,.5h0c.2.2.4.3.6.4,1,.3,2.1.5,3.2.4.8,0,1.5-.2,2.2-.6,1-.5,1.7-1.2,2.4-2.1.1-.1.2-.4.2-.5,0-.6-.3-1.1-.8-1.5ZM67.1-581.3c-.5.2-.9.4-1,1,0,.4-.1.8-.1,1.1,0,0,0,.2.1.2.4.1.8.2,1.2.3.5,0,1,0,1.5,0,.5,0,1.1,0,1.6-.1,1.2-.2,2.4-.5,3.5-1.2.4-.3.8-.5,1.1-.8h0c-.4,0-.8,0-1.2.1-.8,0-1.7.2-2.5.2-.4,0-.8,0-1.2,0-.7,0-1.3-.2-1.9-.6-.3-.2-.6-.2-1-.1Z"/>
    </g>
    <g id="FLASK">
      <path class="cls-2" d="M37.9-694.9c-2.3-1.8-4.7-3.6-6.4-6-3.5-4.3-6.2-9.3-8.1-14.6-1.1-3.4-1.5-7.1-2.9-10.4-1.5-2.4.3-5,2.8-5.8,1.2-.2,3.2-1.3.7-.5-2.2,1.6-2.4-1.5-.2-1.7,1.5-.2,2.1-1.5,1.6-2.6-1.6-1.1,4-2.3,1.2-3.9-3-3.2,4.1-3.8,2.4-.2-.4,2.8,5-.5,3.7,2.7,1.3,1.6,4.8.4,4.7,2.5,1.8.1,2.5,1.7,4.2,1.8,1.8.8,5.1,1.5,5.7,3.5-1.8,1.4-5.9-2.9-6.1,1,.5,5.8.4,11.8,2.5,17.4,1,3.4,3.4,6,5.6,8.6,2.1,2.6,4.9,4.4,7.8,5.9,2.5,1.2,5.3,2,8,2.5,1.1-.9,3.1-4.1,4.8-2.7,0,1.5-3.5,3.2-.2,3,1.9-.6,3.3,1.5,4.9-.4,1.5,1.8,6.1-1.1,5.1,2.5-1.4.9-3.5.4-4.9,1.6-2.3-1.2-4.2,1.1-6.8.8-2.9.5-5.8.7-8.7.7-4.8-.4-9.7-.5-14.2-2.2-2.6-.8-5.1-2.2-7.3-3.7ZM42-693.1c2.5,1.1,4.9,2.2,7.7,2.6,4.3.6,8.8,1.5,13.2.7-2-.9-4,.4-6-.6-2.4.5-4.9-.1-7.3-.4-2.7-1.2-5.7-2.1-8.2-3.7-3.2-1.2,1.7,1.5,2.5,1.7,2,1.1-2.2-.6-2.8-1.1-1.7-.9-1.9-.7-.2.2.3.2.7.4,1.1.6ZM37.2-696.5c2.4.9,0-1.7-1.1-1.6-.5-.9-1.9-1.4-.9-1.9-1.8.6-1.8-2.3-2.7-1.9-1.9-.6-.7-2.7-2.9-4-.2-1.4-2.2-2.5-2.8-4.6-.3-1.1-2.3-4.1-1-1.3,1,2.7,2.9,5,4.4,7.3,1.2,2.2,2.6,4.5,4.7,5.9.7.7,1.4,1.8,2.4,2ZM30.2-704.2c0-.4.4.8,0,0h0ZM40.1-695.4c-.8-.3.5-.2,0,0h0ZM41.4-694.9c-.6.4-.1-.7,0,0h0ZM43.1-694.2c-1.2-.5.8-.8,0,0h0ZM45.9-692.7c-1.5-.3.5-.7,0,0h0ZM40.5-696.5c-1.6,0,1.2-.8,0,0h0ZM41.7-695.8c-.4.2,0-.4,0,0h0ZM47.9-692c1,.6,5.8,1.4,2.8.3-.5.1-5.6-1.4-2.8-.3ZM38.1-699.7c-1.5-.5,0-.4,0,0h0ZM41-698c-1.6-.4.7-.5,0,0h0ZM43.4-696.5c-1.7-.4,1.1-.4,0,0h0ZM36.9-700.9c1.2.9,4.7.1,1.8-.5-1.3-.7-4.3-1.2-2.3.4h.5ZM45-696c-2-.5.5-.8,0,0h0ZM42.6-697.9c2.8.8-2.4-1.8-.7-.3l.4.2h.3ZM47.5-695c-2.4-.4,2.7,0,0,0h0ZM35.9-702.5c-.7,0-.1-.5,0,0h0ZM52-692.5c-.9.7,0-.9,0,0h0ZM40.5-699.7c-.8,0-.2-.5,0,0h0ZM36.1-702.8c-2.1-.7,1.5,0,0,0h0ZM31-706.2c-1.7-1.3-.2-.7,0,0h0ZM44.5-697.5c-.3-.3-.1,0,0,0h0ZM52.9-692.3c-.5.2,0-.5,0,0h0ZM43.8-698.3c-1.3-.2.2-.6,0,0h0ZM37.5-702.3c-1.8-.8,1.2-.1,0,0h0ZM48.1-695.7c-1.8-.4,1.8-.7,0,0h0ZM42.6-699.5c2.1.3-2.5-1.4-.5-.2l.5.2h0ZM49.8-695c1.9-1.2,1.3,2.7,3.3.3,2-1.4-1.7,1.8.7.3,1.7-1.2,4.3.6,5.9,1.1,1.2,0,2.3,1,3.5.4,2.3-.6-4.5-.9-2.7-2-2.1.6-3.7-.7-4.7-2.1-2.4-.6-5.1-1.8-6.3-3.9-.5-.8.7.1-.4-1.2-1.4-1.3-2.1-2.7-3.1-4.3-1.1-.6-1.3-2.4-1.4,0,0-1.5-1.4-2.5-1.7-2.1,0-1.4,1.5-.7.4-1.8-.2-1.5-1-3-1.2-4.7-.3-.8,0-2.6-1.2-.7-.4,1.9-.1-2.4.5-1,.8-1.5-.3-1.3-.3-1.1.5-1.2.3-3-.1-2.3.3-1.3.5-4.8-.4-4.2.5-1.4,1-6.2-1.3-4.4-1,0-2.6.4-3.4.7,2.5,1.4-.2.5-1.3.3-.1,1.3-1.1.7-2.4.7,2,.2-1,2-2.1,1.3-1.5.7,1.3,2.5,0,3,.2.8-2.3-.3-2.1,1.6-1.4-.6-.2,2.3.5,1.3,2.4.7,1.7,2.2,1.8,3.6-.4.8-2-2-.3-1.8-1.3-2.1-1.4-.8-2.5.2-.2,0,2.7,1.4.9,2,1.6.3,1.7,1.7,2,2.6,1,1,.8-1.1,1.9.1-.7-1.1-3.9-3.1-1.4-2.5,0-1.1-.5-2,.3-2,.8-1.4-.8,3.5.9,1.7.5-.2.6-1.4,1.5.1,1.3,1.3.5,2.2-1.3,1,.3,1.1,2.4,1.5,2,3.2.4,1.5,1,.9,1.5.9.4,1.5.6.4.6-.3,1.8.4,1.4,1.5,1.9,2.2,1.2.6-1.8-3.8.4-1.3,2.2,2,.8,2.9-1.2,2.6,1.3-.1,1.7,1.7,3.3,1.7,1.5.7,2.4,3.4,0,2.3-.9-.8-3.9-1.8-1.4-.3,2.3,1.1,4.2,1.7,6.4,3.1,1.6,1.2,2.3,2.5,2.9,2.7-1.3.6-4.1-.5-2-.9-1.3-.2-2.7-.9-1.5.7,1,.9,3.6.8,4.1.9-.4.9-1.1.9,0,1-1.2.7.4.8.5,1.1h0ZM47.3-702.1c-.7-.8-.9-2.2-.1-1,.4.2,1.3,2.4.1,1h0ZM55.4-696.9c0,.4.5,0,0,0h0ZM46.1-704c0-1.2.3.9,0,0h0ZM45.3-705.1c-.9-1.8,1.2.5,0,0h0ZM35.6-711.9c.3.9.5-.1,0,0h0ZM43.3-707.6c.3-1.3.4,1.1,0,0h0ZM37.8-711.5c-.4-.7.8.7,0,0h0ZM42.5-710c-.9-2,.6-1.1.2.3l-.2-.3ZM34.4-715.4c-.4-.7-1-2.6-.8-3.2.2,1,2,4.1.9,1.3-1.2-2.3,1.5.8,1.8,1.3.1.6-.8-.2-.2,1.2-1.1-1.6-.7.9-1.7-.7ZM31.9-717.2c.1-1.5.6,1,0,0h0ZM33-716.8c.5-1.1.9,1.6,0,0h0ZM30.3-718.9c-.9-.9-1.6-1.8,0-.6.6,0-1.4-2,.2-.6,1.6.3.8,2.7-.2,1.2ZM31.8-718.9c.3.5.5-.5,0,0h0ZM32.6-718.6c-.8-1.6,1,.7,0,0h0ZM30.9-720.3c-2.7-2.4,3.4,1.3.4.5l-.4-.5h0ZM38.7-715.8c-1.2-.7-.3-5,0-2.1,1.1-.4,0,1.5.8,1.5-.1,1.2-.5,1.6-.9.6ZM41.5-714c.1-1.3.2.9,0,0h0ZM41-714.5c0,.7.1-.6,0,0h0ZM31.4-721.1c-1.7-2.4,5.1,2.5,1.1.6-.4-.1-.9-.1-1.1-.6ZM37-718.2c-.2-2,.4.3,0,0h0ZM41.2-715.4c0,.8.3-1.2,0,0h0ZM31.7-722c1-.2,4.3,1.8,1.3.6-.3-.4-1-.2-1.3-.6ZM40.6-717.6c.1-2.1.6-1.2,0,.3v-.3h0ZM32.5-722.8c.4-.6-1.1-2.8.2-.8.6.5,1.7.8.7,1,1.5,1.4-.4.4-.9-.2ZM40.1-718.2c.3,1.4.3-2.4,0,0h0ZM31.6-725c.2.4.3-.1,0,0h0ZM33.6-723.8c.5-1.1,1,1.2,0,0h0ZM39.2-720.6c0-.4.1.6,0,0h0ZM38.9-721.3c-.8-2,.7,1,0,0h0ZM38.4-722.6c-.1-.8.4,1,0,0h0ZM39.2-723.9c-.5-1,.7-4.2.8-2.2-.6,1.6-.2,2.5.2.3.7-1.7-.2,3.3-1,1.9h0ZM40-728.7c0,.4.2-.3,0,0h0ZM38.7-702c-.3-.3,0,.2,0,0h0ZM41.5-700.6c1.5.4,1.5-.2.1-.4-.8-.7-3.1-1.5-1,0,.1.4.6.4.9.5ZM36-704.2c.9.6,3.2,1.8,1.2.2.7-.8-1.3-1.2-.6-1.7-1.6-1-1.3-.9-.1-.9-2-.9.3-.8.2-1.3-.8-.2-3.8-1.4-2,0-1.8-.9-.4.3-1,.2-1.9-.5,1.7,1.4-.3.9,1.1.9,2.9,2.2.5.9-.3.5,1.7,1.2,2.2,1.5ZM38.9-702.5c-1.7-1.4,3.5,1.1,0,0h0ZM53.7-693.5c-.5.6,0-.7,0,0h0ZM55.3-692.8c.8-.8,0,1.3,1.3-.2,0-1,0-1.7-1.5-.4-.4.2-.6,1.2.2.6ZM31-708.2c-1.8-1-.2-1,0,0h0ZM32.7-707.1c-2.2-.9-.6-1,0,0h0ZM41.9-701.5c.9.8,4.2.6,1.1,0-.5-.7-2.9-.5-1.1,0ZM54.7-693.5c-1.3.5,1.4-1.2,0,0h0ZM57.6-691.5c-.6.2,0-.4,0,0h0ZM57.6-692c1.5-1.6-1.5,0,0,0h0ZM27-711.6c-1.3-1.9-.8-2.7-2.1-4.3-.2-1.2-2.2-3.9-1-1,1.1,1.7,1.4,4.2,3.1,5.3ZM57.1-692.6c-1.2-.8,2.8-1.9,0,0h0ZM59.3-691.7c-.9-.3,1.4-1.2,0,0h0ZM30.5-710.3c-1,0,.4-.6,0,0h0ZM58.8-692.3c1.4-.9-.3-.8-.2,0h.2ZM40.1-704.2c-.7,0,0-.6,0,0h0ZM41.3-703.5c-.6.1-.4-.7,0,0h0ZM61-691.7c1.8-1.3-1.1-.2-.4.2l.4-.2ZM60.3-692c-1.5.5,1.4-1.2,0,0h0ZM63.8-689.7c-1.2-.2,1-.7,0,0h0ZM31.4-710.7c1.3.3,5.2,3.2,2.9.2-1.2-.3-.5-3.2-1.7-2.7.8,1.4.7,1.9-1,1.1-2.1-1-1.2.5-.8.9-.6.1.7.5.6.5ZM25.5-715.4c.2-1-2.1-5.3-1.1-2.2.4.7.3,1.9,1.1,2.2ZM36.3-708.7c-.7-.6,0,0,0,0h0ZM38-708.3c-1.8-.4,0-1,0,0h0ZM52.2-699.3c-.3-.7-1.1,0,0,0h0ZM52.9-698.8c-.4,0-.1-.4,0,0h0ZM58.5-695.2c-.7,0,.5-.4,0,0h0ZM28.5-714.6c-1.7-.4,1.5-.6,0,0h0ZM50.9-700.4c-1,.3,0-1,0,0h0ZM27.9-716.1c-.9-.2,1-.3,0,0h0ZM30.7-714.7c-.3.1,0-.3,0,0h0ZM66-692.9c1.3-.3,4.2.7,4.7-.3-1.6,0-5.4-1.1-5.6.3h.3c0,0,.5,0,.5,0ZM31.7-714.4c-.8,0,0-1,0,0h0ZM24.1-719.8c-1.3-.3-.3-2,0,0h0ZM25.9-719.3c-1.7-.6,0-.6,0,0h0ZM26.9-718.8c-.3-.2-.2.3,0,0h0ZM33.4-714.6c-.7-.2.3-.3,0,0h0ZM26.2-719.9c-2.1-.2-.2-1.5,0,0h0ZM22.5-722.4c-.4.3,0-.7,0,0h0ZM23.1-722.8c-.5.1,0-.8,0,0h0ZM26.1-720.9c1.3-.5-2.4-1.1-.3,0h.3ZM67-695.5c-1-.2.8-.8,0,0h0ZM71.9-692.9c-.8.1.3-1,0,0h0ZM26.4-722.6c-1,.2.1-1,0,0h0ZM22.1-725.5c-.2-1.3-.2-3.7,2-2.9-3,.6,2.1,3.7,1.4,1.3,1.3,0,2.4-.7,1.8.5,2.5-.3,4.2-2.4,6.6-2.1,1.9-.2,3.9-.4,5.9-1.2,1.6-.1,3.2-1.9,2.3-3-2.2-.2-4.6,0-7.1.6-2.7.6-5.2,1.7-8,2.1-2.7.4.5,1-.2,1.2-1.4.5,1.7.8-.2,1.3-1.2-.2-2.3-.6-1.9-1.8-2.6.3-4.9,1.4-2.8,4.1h.2s0,0,0,0h0ZM28.3-728.7c.6-2.3,3.3,1.9,1,.3-.3-.2-.7-.4-1-.3ZM28.4-729.8c.5.4.9-.7,0,0h0ZM29.6-729.8c0-1,2.5.5.4.4l-.4-.4ZM31.1-730.4c.2.6.6-.7,0,0h0ZM31.5-730.7c.9-1.1,5.2-.7,2.1-.1-.8-.6-1.5.4-2.1.1ZM37.1-731.5c-.1-3.1,2.8,1.1,0,0h0ZM38.7-731.5c.6-1.5,2.3-.6.3-.3,0,.2,0,.8-.3.3ZM25.8-723.4c-1.9-.9,1.7-1.1,0,0h0ZM27.1-723c-1.3-.3.6-.7,0,0h0ZM23.3-725.7c-1.2-.3,1-.8,0,0h0ZM74.8-693.2c-.8.4,0-.9,0,0h0ZM69.6-696.8c-.7,0,.1-1,0,0h0ZM76.2-692.9c1.4,0,4.2-.4,1.2-.4-.5,0-2.8,0-1.2.4h0ZM28.2-723.6c1.1,0,1.8-1.3-.2-1.2-3.1-.3,2.7,1.1-.4.7-.4.3.6.6.6.5ZM29.2-723.1c-.3.4-.1-.7,0,0h0ZM30.4-726.3c-.7-.2.5-.6,0,0h0ZM26.6-732.6c2-.7,4.8-1.5,5.7.3-1-1.2-.4-2.3.5-.6,1.3,1.7,1.9-.8,1.1-1.4,1,1.2,2,1.8.6,0,1.5-1.9-3.1.2-4.1.2-.5.2-5.2,1.2-3.9,1.3ZM27.8-734.9c1.1-.9,4,.5,2.2-.9-.2-.2-4,1.1-2.2.9ZM32-734.7c1.3,0-.6-1.8,1-1-.3-.9-1.9-1-2.6-1.4-.4.8.9,2.4,1.6,2.4ZM28.6-738.6c-.8.3.5-.6,0,0h0ZM30.3-738.1c2.2-.3-.6-.9-.4,0h.4ZM27.1-740.7c-1.5-2,2.9.3,1.3-1.8-1.3-1-2.6,1.2-1.3,1.8ZM46.6-730c.7-1.3-2.9-1.7-.5-.4.2,0,.2.5.5.4Z"/>
    </g>
    <g id="REDIS">
      <path class="cls-2" d="M22.5-849.1c3.2,1.5,20.8,8.7,23.6,10,2.8,1.3,4.7,1.3,8.3-.5,3.5-1.9,20.1-8.7,23.2-10.4,1.6-.9,2.4-1.5,2.4-2.1v-6.1c0-.6-.8-1.1-2.4-1.7l-22.7-8.9c-3.2-1.2-4.4-1.1-8.1.2-3.8,1.3-21.3,8.3-24.4,9.5-1.5.6-2.4,1.2-2.4,1.8h0v6.1c0,.7.9,1.3,2.5,2.1ZM51.2-848.2l-9.7-4.1,13.9-2.1-4.2,6.2ZM72.2-857.8l-8.2,3.3-.9.3-8.2-3.3,9.1-3.7,8.2,3.3ZM48.2-863.8l-1.3-2.5,4.1,1.7,4-1.3-1.1,2.6,4,1.5-5.2.5-1.2,2.8-1.8-3.1-6-.5,4.5-1.7ZM37.8-860.3c4.1,0,7.4,1.3,7.4,2.9s-3.3,2.9-7.4,2.9-7.4-1.3-7.4-2.9,3.4-2.9,7.4-2.9ZM22.5-838.7c3.2,1.5,20.8,8.7,23.6,10,2.8,1.3,4.7,1.3,8.3-.5,3.5-1.9,20.1-8.7,23.2-10.4,1.6-.9,2.4-1.5,2.4-2.1v-6.1c0,.6-.8,1.2-2.3,2.1-3.2,1.7-19.8,8.6-23.2,10.4-3.5,1.9-5.5,1.9-8.2.5-2.8-1.3-20.5-8.5-23.6-10-1.6-.7-2.5-1.4-2.5-2v6.1c0,.6.9,1.2,2.4,2ZM22.5-828.7c3.2,1.5,20.8,8.7,23.6,10,2.8,1.3,4.7,1.3,8.3-.5,3.5-1.9,20.1-8.7,23.2-10.4,1.6-.9,2.4-1.5,2.4-2.1v-6.1c0,.6-.8,1.2-2.3,2.1-3.2,1.7-19.8,8.6-23.2,10.4-3.5,1.9-5.5,1.9-8.2.5-2.8-1.3-20.5-8.5-23.6-10-1.6-.7-2.5-1.4-2.5-2v6.1c0,.5.9,1.2,2.4,2Z"/>
    </g>
    <g id="LINUX">
      <g>
        <path class="cls-2" d="M74.3-953.7c-.2-.4-.5-.8-.8-1.2-.6-.6-.9-1.3-1.1-2.4-.2-1.1-.6-2.5-1.8-3.4.8-3.4.3-6.7-1.5-10.5-1.4-2.9-3.4-5.4-5.3-7.8l-.4-.5c-1.7-2.2-2.5-4.5-2.4-7.2,0-2.3-.1-4.7-.5-7.1-.7-4.1-3.1-6.7-6.8-7.4-.8-.1-1.6-.2-2.5-.2s-1.4,0-2.2.1c-4.1.5-6.9,3.1-7.6,7.1-.3,2.1-.4,4.3-.3,6.7.3,4-.6,7.1-2.9,9.9-1.2,1.5-2.4,3.1-3.6,5.2-1.6,2.8-3.5,6.5-3.2,11-.1.2-.3.3-.4.5-.7.9-1.3,1.6-2.2,1.9-2.7.8-3.8,2.7-3.3,5.6.2,1.2.2,2.1-.1,2.9-.5,1.5-.4,2.7.2,3.7.6,1,1.7,1.7,3.3,2,.3,0,.7.1,1,.2,2.5.3,4.4.6,6.2,1.6,1.2.6,2.5.8,3.4.9.4,0,.8,0,1.2,0,2.1,0,3.8-.8,4.9-2.4.4,0,.8,0,1.2-.1,1.7-.2,3.4-.4,5.1-.5,0,0,.2,0,.3,0,.6,0,1.2,0,1.8.2.5,0,.9.1,1.4.2,1,2.1,2.9,3.4,5.3,3.4s.5,0,.8,0c2.1-.2,4.1-1.3,5.7-3.1.9-1,2-1.8,3.4-2.6h.1c.8-.5,1.7-.9,2.5-1.4,1.9-1.3,2.4-3.2,1.3-5.2ZM72.3-949.6c-.8.5-1.7.9-2.5,1.4-1.5.7-2.8,1.6-3.9,2.9-1.3,1.4-2.8,2.5-4.8,2.7-2.1.2-3.8-.7-4.7-2.7-.2-.5-.5-.6-1-.6-1.3,0-2.5-.4-3.8-.3-2.3.1-4.6.4-6.9.7-.1,0-.3.2-.4.3-1.2,1.9-3,2.3-5,2-1-.1-2-.3-2.9-.8-2.1-1.1-4.4-1.5-6.7-1.7-.3,0-.6,0-.9-.1-2.3-.5-3.1-1.6-2.4-3.9.4-1.2.4-2.4.2-3.6-.4-2.2.3-3.4,2.3-4,1.7-.5,2.5-1.9,3.6-3.1,0-.1,0-.3,0-.5-.3-3.8,1.1-7.2,3-10.4,1-1.8,2.2-3.5,3.5-5.1,2.6-3.2,3.5-6.8,3.2-10.9-.1-2.1,0-4.3.3-6.4.6-3.4,2.9-5.5,6.3-5.9,1.4-.2,2.9-.2,4.3,0,3.4.6,5.1,3.1,5.7,6.2.4,2.2.6,4.6.5,6.8,0,3.1.8,5.7,2.7,8.1,2,2.5,4.1,5,5.5,8,1.6,3.4,2.3,6.8,1.1,10.6,1.4.5,1.8,1.7,2.1,3,.2,1.2.6,2.2,1.5,3.1.3.3.4.6.6.9.8,1.4.5,2.5-.8,3.4Z"/>
        <path class="cls-2" d="M49.6-989.2c0-.5.3-1,.5-1.4,1.1-2,3.4-2,4.6,0,.9,1.5.8,3.5-.3,4.9-.5-.2-.9-.4-1.2-.5,0-.8.2-1.6.2-2.3,0-.6-.4-1.3-1.1-1.3-.7,0-1,.6-1.2,1.2-.1.4-.1.8-.1,1.2-1.4-.3-1.5-.5-1.3-1.8Z"/>
        <path class="cls-2" d="M44.4-991c.6-.6,1.4-.6,2-.1,1,.8,1.3,1.9,1.1,3.1,0,.3-.6.6-1.1.9-.1-.7-.1-1.8-1-2.1-.7-.2-.8.9-.8,1.3,0,.3.5,1.7.3,1.8,0,0-.2.2-.4.3-1.4-1.2-1.5-4.1-.2-5.4h0Z"/>
        <path class="cls-2" d="M54-985.4c-1.2-.5-2.3-1.1-3.5-1.6-.6-.2-1.2-.4-1.8-.6-1.1,0-1.9.5-2.7,1.2-.5.4-1.1.9-1.6,1.3-1.4,1-1.4,2,0,3,.6.5,1.2.9,1.8,1.4,1.4,1.2,2.8,1.4,4.4.6,1-.5,2-1,3.1-1.6.3-.2.6-.4.9-.7,1.2-1.2,1-2.3-.5-3ZM47.9-981.4c-1.7-.1-2.8-1.1-3.9-2.3,0,0,.1-.2.2-.2.3.2.5.5.8.7,2,1.8,3.5,2,5.9.8.7-.4,1.4-.8,2.1-1.2.3-.2.7-.3,1-.5,0,0,0,.2,0,.3-2,1-3.7,2.7-6.2,2.5Z"/>
        <path class="cls-2" d="M43.9-945.7c-.8,1.4-2.1,1.6-4,1.7-.7-.2-2-.4-3.1-.9-2.1-1-4.3-1.4-6.6-1.7-.2,0-.5,0-.7-.1-2.2-.4-2.7-1.2-2-3.3.4-1.3.3-2.6,0-3.9-.2-1.7.2-2.5,1.8-3.1,1.4-.4,2.4-1.3,3.2-2.5,1.4-2,3-2.1,4.6-.1.8.9,1.3,2.1,1.9,3.1,1,1.5,1.9,3,2.9,4.5.5.8,1.1,1.5,1.6,2.3.8,1.2,1.1,2.6.3,3.9Z"/>
        <path class="cls-2" d="M56.6-950.8c-3.4,2.3-7.1,3.1-11.1,1.5-1.4-.6-2.1-1.8-2.9-2.9,0,0,.1-.1.1-.2,1.7-.4,2.2-1.4,1.2-2.9-.7-1.1-1.7-2.1-2.6-3-.6-.6-1.3-1-2-1.4-2.7-1.8-3.6-3.8-3-7,.5-2.5,1.7-4.8,3-6.9,0,0,.1,0,.2,0-.3.7-.7,1.4-1,2-1,2-1.8,4.1-1.5,6.3.1.9.5,1.8.8,2.6,0,0,.2,0,.3,0,.2-1.1.3-2.2.6-3.3.5-1.7,1.2-3.4,1.9-5.1,1.3-2.9,2.6-5.8,3.3-8.9.1-.5.2-1.1.3-1.8.6.5,1.2.8,1.7,1.3,1.5,1.3,3,1.6,4.8.7,1.6-.8,3.1-1.7,4.6-2.5.7,1.9,1.3,3.9,2.1,5.8,1,2.4,2.2,4.7,3.2,7,.5,1.2.9,2.5,1.3,3.8.3,1,.2,1,1.4,1.1,1.1-4-.5-7.1-3-10.1.1,0,.3.1.4.2,2.6,2.7,4.2,5.8,3.8,9.8,0,.5.1.6.5.9.7.4,1.4.8,2,1.3.4.4.7,1,.9,1.5,0,.2-.1.6-.3.8-.7-2-3-3.5-5.1-3.5-1,0-1.5.4-1.8,1.4,0,.2-.2.6-.3.7-1.8.9-2.2,2.7-2.4,4.4-.3,1.9-.5,3.8-.8,5.7,0,.3-.2.6-.4.8Z"/>
        <path class="cls-2" d="M65.5-960.3c-.6.8-1.4,1.4-2.5,1.4-.5,0-1.2-.3-1.3-.7-.4-.8-.5-1.7-.6-2.5,0-2.5,5.8,0,4.4,1.8Z"/>
        <path class="cls-2" d="M71.9-950.2c-.7.4-1.4.8-2.1,1.1-1.6.8-3.1,1.8-4.3,3.2-1,1.1-2.1,1.9-3.6,2.3-3,.8-5.4-1.3-5-4.4,0-.6.2-1.2.4-1.7.8-2.4,1.2-4.9,1.3-7.5,0-.8.2-1.6.5-2.3.2-.6.7-1,1.2-1.7.3.9.5,1.6.8,2.2.6,1.1,1.6,1.6,2.7,1.2.9-.3,1.7-.7,2.4-1.3,1.2-.9,3-.6,3.6.8,0,0,0,.1,0,.2.4,2,1.2,3.7,2.5,5.4.8,1,.5,1.8-.6,2.5Z"/>
      </g>
    </g>
    <g id="DJANGO">
      <g>
        <path class="cls-3" d="M57.5-1128.9h-9.8v14.8c-1.5-.4-2.7-.5-4.3-.5-10.3,0-16.9,6.4-16.9,16.4s6.2,15.7,18.2,15.7c4,0,7.7-.4,12.7-1.3v-45ZM44.7-1106.5c1.2,0,2.2.1,3.3.5v15.6c-1.4.2-2.3.2-3.4.2-5,0-7.8-2.9-7.8-8s2.9-8.3,7.8-8.3Z"/>
        <path class="cls-2" d="M73.5-1090.9v-22.5h-9.8v19.2c0,8.5-.4,11.7-1.8,14.5-1.3,2.7-3.4,4.5-7.8,6.5l9.1,4.3c4.3-2.2,6.4-4.1,8-7.2,1.7-3.2,2.3-7,2.3-14.7Z"/>
        <path class="cls-2" d="M72.6-1128.9h-9.8v10h9.8v-10Z"/>
      </g>
    </g>
    <g id="PYTHON">
      <g class="cls-4">
        <g>
          <path class="cls-3" d="M28.3-1242.5h23.5v-2.6h-14.3v-6.5s0-6.5,14.3-6.5,14.3,6.5,14.3,6.5c0,0,.1,11.6,0,15.6,0,4-2.7,6.6-6.6,6.6h-15.6c-5.2,0-9.1,3.9-9.1,9.1v6.5h-6.5s-6.5,0-6.5-14.3,6.5-14.3,6.5-14.3ZM46.6-1251.7c0,1.4-1.2,2.6-2.6,2.6s-2.6-1.2-2.6-2.6,1.2-2.6,2.6-2.6,2.6,1.2,2.6,2.6Z"/>
          <path class="cls-3" d="M75.3-1213.8h-23.5v2.6h14.3v6.5s0,6.5-14.3,6.5-14.3-6.5-14.3-6.5v-15.7c0-3.9,2.6-6.5,6.5-6.5h15.7c5.2,0,9.1-3.9,9.1-9.1v-6.5h6.5s6.5,0,6.5,14.3-6.5,14.3-6.5,14.3h0ZM62.2-1204.7c0,1.4-1.2,2.6-2.6,2.6s-2.6-1.2-2.6-2.6,1.2-2.6,2.6-2.6,2.6,1.2,2.6,2.6Z"/>
        </g>
      </g>
    </g>
  </g>
</svg>