<?xml version="1.0" encoding="UTF-8"?>
<svg id="Ebene_1" xmlns="http://www.w3.org/2000/svg" viewBox="0 0 36 50">
  <defs>
    <style>
      .cls-1 {
        fill: none;
        stroke: #056991;
        stroke-width: 2px;
      }
    </style>
  </defs>
  <path class="cls-1" d="M29.75,28.63c-1.74,2.39-3.59,4.92-4.63,7.86h-14.22c-1.05-2.98-2.94-5.55-4.71-7.97l-.03-.04h0c-.51-.7-1.01-1.38-1.49-2.07h0c-1.83-2.61-2.89-5.79-2.89-9.22C1.76,8.25,9.03,1,18,1s16.24,7.25,16.24,16.2c0,3.43-1.07,6.6-2.9,9.22h0c-.48.69-.98,1.37-1.49,2.07h0s-.06.09-.1.14ZM24.83,42.19c0,3.76-3.06,6.81-6.83,6.81s-6.83-3.05-6.83-6.81v-.56h13.67v.56ZM8.6,19.75c1.41,0,2.57-1.15,2.57-2.56,0-3.76,3.06-6.81,6.83-6.81,1.41,0,2.57-1.15,2.57-2.56s-1.16-2.56-2.57-2.56c-6.61,0-11.97,5.34-11.97,11.94,0,1.41,1.16,2.56,2.57,2.56Z"/>
</svg>